<?xml version="1.0" encoding="UTF-8" standalone="no"?>
<svg
   xmlns:dc="http://purl.org/dc/elements/1.1/"
   xmlns:cc="http://creativecommons.org/ns#"
   xmlns:rdf="http://www.w3.org/1999/02/22-rdf-syntax-ns#"
   xmlns:svg="http://www.w3.org/2000/svg"
   xmlns="http://www.w3.org/2000/svg"
   xmlns:sodipodi="http://sodipodi.sourceforge.net/DTD/sodipodi-0.dtd"
   xmlns:inkscape="http://www.inkscape.org/namespaces/inkscape"
   width="210mm"
   height="297mm"
   viewBox="0 0 210 297"
   version="1.1"
   id="svg8"
   inkscape:version="1.0.2 (e86c870879, 2021-01-15)"
   sodipodi:docname="fedcon.svg">
  <defs
     id="defs2">
    <rect
       x="78.527876"
       y="200.165"
       width="106.74801"
       height="33.390727"
       id="rect911" />
  </defs>
  <sodipodi:namedview
     id="base"
     pagecolor="#ffffff"
     bordercolor="#666666"
     borderopacity="1.0"
     inkscape:pageopacity="0.0"
     inkscape:pageshadow="2"
     inkscape:zoom="0.98994949"
     inkscape:cx="325.98544"
     inkscape:cy="318.6642"
     inkscape:document-units="mm"
     inkscape:current-layer="layer1"
     inkscape:document-rotation="0"
     showgrid="false"
     inkscape:window-width="1438"
     inkscape:window-height="970"
     inkscape:window-x="13"
     inkscape:window-y="11"
     inkscape:window-maximized="0" />
  <metadata
     id="metadata5">
    <rdf:RDF>
      <cc:Work
         rdf:about="">
        <dc:format>image/svg+xml</dc:format>
        <dc:type
           rdf:resource="http://purl.org/dc/dcmitype/StillImage" />
        <dc:title></dc:title>
      </cc:Work>
    </rdf:RDF>
  </metadata>
  <g
     inkscape:label="Layer 1"
     inkscape:groupmode="layer"
     id="layer1">
    <path
       style="fill:#000000;stroke-width:0.264583"
       id="path905"
       d="" />
    <path
       style="fill:#000000;stroke-width:0.264583"
       id="path903"
       d="" />
    <path
       style="fill:#000000;stroke-width:0.264583"
       id="path901"
       d="" />
    <text
       xml:space="preserve"
       id="text909"
       style="fill:black;fill-opacity:1;line-height:1.25;stroke:none;font-family:sans-serif;font-style:normal;font-weight:normal;font-size:10.58333333px;white-space:pre;shape-inside:url(#rect911);" />
    <g
       id="g909">
      <path
         d="m 180.75034,140.42709 h -6.80097 l -13.14488,-14.11384 v 14.11384 h -7.56882 v -25.3391 h 6.78268 l 13.10832,14.04071 v -14.04071 h 7.62367 z"
         style="font-style:normal;font-variant:normal;font-weight:bold;font-stretch:normal;font-size:37.4419px;line-height:1.25;font-family:'Gill Sans';-inkscape-font-specification:'Gill Sans Bold';fill:#000000;fill-opacity:1;stroke:none;stroke-width:0.39002"
         id="path860" />
      <path
         d="m 116.23457,138.52574 q -1.57227,0.8227 -3.21766,1.31632 -1.6454,0.49362 -3.32736,0.69472 -1.66368,0.21939 -3.45533,0.21939 -3.30907,0 -5.94171,-0.91411 -2.614352,-0.91411 -4.552262,-2.68748 -1.919629,-1.79165 -2.888584,-4.16834 -0.950674,-2.39496 -0.950674,-5.24698 0,-3.27251 1.133495,-5.72232 1.133495,-2.4681 3.162813,-4.09521 2.04761,-1.62711 4.643682,-2.39497 2.61435,-0.78613 5.50293,-0.78613 4.3146,0 9.78097,1.91963 v 6.72784 q -1.88307,-1.17006 -3.72957,-1.93791 -1.82821,-0.78613 -4.31459,-0.78613 -2.21214,0 -4.13177,0.87754 -1.91963,0.87754 -3.08969,2.50466 -1.170062,1.62711 -1.170062,3.80269 0,1.91963 1.023802,3.52846 1.0238,1.59055 2.83374,2.54122 1.82822,0.93239 4.11349,0.93239 1.8465,0 3.4919,-0.43877 1.64539,-0.45705 2.7606,-1.00552 1.1335,-0.54846 2.32184,-1.29803 z"
         style="font-style:normal;font-variant:normal;font-weight:bold;font-stretch:normal;font-size:37.4419px;line-height:1.25;font-family:'Gill Sans';-inkscape-font-specification:'Gill Sans Bold';fill:#000000;fill-opacity:1;stroke:none;stroke-width:0.39002"
         id="path856" />
      <path
         style="fill:#000000;stroke-width:0.015571"
         d="m 134.50823,143.05601 c -1.14034,-0.0755 -1.95876,-0.1962 -2.88843,-0.42606 -2.36156,-0.58391 -4.53899,-1.71857 -6.37633,-3.32272 -0.63791,-0.55694 -1.33343,-1.28189 -1.86172,-1.94048 -1.89532,-2.3628 -3.04529,-5.21959 -3.30633,-8.21372 -0.0759,-0.87094 -0.0762,-1.85701 -6.9e-4,-2.71715 0.14702,-1.67509 0.56143,-3.28612 1.24534,-4.84135 0.10448,-0.23756 0.42819,-0.89459 0.55682,-1.13014 0.4746,-0.86909 1.04392,-1.70139 1.71484,-2.50693 0.35816,-0.43003 1.04292,-1.13974 1.47267,-1.52633 2.46299,-2.21565 5.55558,-3.56673 8.83656,-3.86046 0.72107,-0.0645 1.90067,-0.0726 2.56144,-0.0174 1.27938,0.10679 2.46579,0.34625 3.62718,0.7321 2.49056,0.82743 4.75496,2.3091 6.51007,4.25973 1.58314,1.75952 2.73988,3.8466 3.36125,6.06467 0.73192,2.61266 0.77169,5.30742 0.11696,7.92566 -0.91016,3.63966 -3.19461,6.87796 -6.32043,8.95945 -1.19622,0.79656 -2.34087,1.35866 -3.66698,1.8007 -1.15955,0.38652 -2.32808,0.62259 -3.62805,0.73296 -0.27712,0.0236 -1.70957,0.0437 -1.95417,0.0275 z m -7.59866,-3.96852 c 0.41034,-0.10967 0.75521,-0.40111 0.95831,-0.80983 0.11866,-0.23881 0.16428,-0.42265 0.1743,-0.70241 0.0181,-0.50596 -0.13758,-0.92678 -0.46696,-1.2622 l -0.10965,-0.11166 0.23974,-0.11982 c 0.13185,-0.0658 0.49899,-0.2512 0.81586,-0.41179 0.31687,-0.16059 1.40996,-0.71067 2.42908,-1.22241 3.3387,-1.67647 4.4294,-2.22673 4.42968,-2.23476 1.6e-4,-0.005 -0.20467,-0.12326 -0.45517,-0.26424 -0.2505,-0.14098 -0.55005,-0.30996 -0.66566,-0.37549 -0.94705,-0.53685 -1.267,-0.71482 -1.28509,-0.71482 -0.0115,0 -0.21236,0.0971 -0.44625,0.21569 -1.14838,0.58246 -5.99088,3.00751 -6.0056,3.00751 -0.009,0 -0.0214,-0.0193 -0.0268,-0.0428 -0.005,-0.0236 -0.0438,-0.11368 -0.085,-0.20029 -0.21519,-0.4514 -0.60152,-0.76419 -1.05679,-0.85561 -0.1713,-0.0344 -0.45831,-0.0238 -0.61608,0.0226 -0.83411,0.24583 -1.31595,1.20968 -1.0578,2.11591 0.0835,0.2931 0.27508,0.60829 0.48141,0.792 0.1451,0.12918 0.3454,0.24628 0.52034,0.30419 0.14005,0.0464 0.16567,0.0498 0.40639,0.0539 l 0.25693,0.005 0.0436,0.0782 0.0436,0.0781 -0.061,0.0899 c -0.34911,0.5145 -0.39225,1.20788 -0.10999,1.76769 0.0827,0.16413 0.16776,0.27807 0.31654,0.42428 0.19966,0.19619 0.41076,0.31462 0.6846,0.38405 0.14262,0.0361 0.49475,0.0306 0.64746,-0.0102 z m 17.58811,-0.14077 c 0.49527,-0.12727 0.87436,-0.60011 1.01113,-1.26122 0.0351,-0.16944 0.0474,-0.5102 0.025,-0.69245 -0.0533,-0.4346 -0.20674,-0.79821 -0.44807,-1.06206 -0.0369,-0.0403 -0.067,-0.0767 -0.067,-0.081 0,-0.004 0.0508,0.0164 0.11289,0.0458 0.39176,0.18559 0.84346,0.16493 1.23693,-0.0566 0.15048,-0.0847 0.40727,-0.3343 0.49169,-0.47788 0.17013,-0.28936 0.24423,-0.58386 0.2238,-0.88949 -0.0439,-0.65678 -0.46115,-1.17987 -1.07131,-1.34307 -0.17762,-0.0475 -0.46338,-0.0471 -0.64365,8.2e-4 -0.41386,0.11012 -0.73414,0.38178 -0.92907,0.78803 -0.035,0.0729 -0.0694,0.1325 -0.0765,0.1325 -0.007,0 -0.0482,-0.0207 -0.0912,-0.0462 -0.043,-0.0254 -0.27983,-0.15956 -0.52621,-0.29818 -0.24637,-0.13862 -0.57407,-0.3236 -0.72823,-0.41109 -0.15415,-0.0875 -0.47647,-0.26961 -0.71626,-0.40474 -0.2398,-0.13514 -0.61818,-0.3488 -0.84084,-0.47481 -0.22267,-0.126 -0.67812,-0.38335 -1.01212,-0.57187 -0.334,-0.18852 -1.14681,-0.64743 -1.80624,-1.01979 -0.65943,-0.37237 -1.22345,-0.68966 -1.25337,-0.70509 -0.0658,-0.0339 -0.0818,-0.026 0.24904,-0.12246 l 0.24135,-0.0704 0.10121,0.0592 c 0.0557,0.0326 0.13625,0.0785 0.17907,0.10205 0.0428,0.0236 0.1234,0.0693 0.17907,0.10149 0.28074,0.16271 0.46665,0.26485 0.48208,0.26485 0.009,0 0.23592,-0.1112 0.50328,-0.2471 0.26735,-0.13591 1.19731,-0.60448 2.06656,-1.04128 0.86925,-0.43679 2.36942,-1.19096 3.3337,-1.67592 0.96428,-0.48497 1.75782,-0.88175 1.76342,-0.88175 0.006,0 0.0102,0.0111 0.0102,0.0245 0,0.0591 0.13179,0.35341 0.21564,0.48153 0.11576,0.17689 0.21939,0.29136 0.36367,0.40171 0.47584,0.36394 1.09936,0.39077 1.5972,0.0687 0.70411,-0.45549 0.94566,-1.46638 0.54028,-2.26108 -0.21529,-0.42205 -0.58991,-0.71933 -1.02068,-0.80994 -0.17293,-0.0363 -0.46688,-0.0279 -0.61146,0.0176 -0.0186,0.006 0.002,-0.031 0.0587,-0.10537 0.16371,-0.21424 0.2894,-0.50354 0.3372,-0.77616 0.0294,-0.16791 0.0255,-0.49209 -0.008,-0.66139 -0.12273,-0.6198 -0.53335,-1.09512 -1.09109,-1.26302 -0.12411,-0.0374 -0.16596,-0.0422 -0.36592,-0.0426 -0.20206,-3.4e-4 -0.2405,0.004 -0.36592,0.0422 -0.54383,0.16518 -0.939,0.60958 -1.07717,1.21135 -0.11767,0.51252 0.0112,1.11344 0.31877,1.4863 0.0461,0.0559 0.0814,0.10382 0.0785,0.10656 -0.003,0.003 -0.77602,0.392 -1.71807,0.86503 -0.94205,0.47303 -1.72919,0.87019 -1.7492,0.88258 -0.02,0.0124 -0.0399,0.019 -0.0442,0.0147 -0.004,-0.005 0.0213,-0.0724 0.0568,-0.15133 0.28807,-0.63977 0.4695,-1.2833 0.55944,-1.98437 0.0394,-0.30672 0.0679,-0.8472 0.0563,-1.06661 -0.005,-0.0899 -0.0123,-0.23357 -0.0169,-0.31921 -0.0318,-0.59779 -0.17721,-1.29561 -0.39885,-1.91372 -0.48966,-1.36551 -1.3979,-2.54727 -2.61309,-3.4 -0.41002,-0.28773 -0.98478,-0.59365 -1.46368,-0.77907 -0.56408,-0.21839 -1.12673,-0.35731 -1.75953,-0.43444 -0.28628,-0.0349 -1.23433,-0.0397 -1.5026,-0.008 -0.6323,0.0755 -1.17194,0.19999 -1.69181,0.39016 -2.02851,0.74202 -3.60571,2.37231 -4.28012,4.42418 -0.41917,1.27534 -0.46242,2.67332 -0.12315,3.98112 0.0337,0.12996 0.0613,0.24096 0.0613,0.24667 0,0.0117 -0.0198,9.5e-4 -0.66177,-0.36155 -0.25692,-0.14508 -0.77543,-0.43741 -1.15225,-0.64961 -0.93768,-0.52806 -0.92971,-0.52332 -0.91377,-0.54405 0.007,-0.01 0.0428,-0.0552 0.0784,-0.10095 0.12553,-0.16135 0.2379,-0.39659 0.30222,-0.63265 0.0297,-0.10903 0.034,-0.16463 0.0341,-0.43638 1e-5,-0.29282 -0.003,-0.32068 -0.0432,-0.46657 -0.19187,-0.68873 -0.71553,-1.14895 -1.36513,-1.19976 -0.6169,-0.0483 -1.21733,0.35373 -1.47247,0.98579 -0.10137,0.25111 -0.12382,0.38047 -0.12217,0.7039 0.001,0.24251 0.006,0.28963 0.0426,0.4282 0.0502,0.18936 0.17977,0.46096 0.28833,0.60421 0.0442,0.0583 0.0803,0.10831 0.0803,0.11124 0,0.003 -0.0298,-0.002 -0.0662,-0.01 -0.0954,-0.0221 -0.48291,-0.005 -0.5956,0.0262 -0.0514,0.0143 -0.15805,0.0564 -0.23705,0.0936 -0.64703,0.30494 -1.02018,1.05773 -0.8992,1.81401 0.11441,0.71515 0.62733,1.26654 1.27543,1.37109 0.14478,0.0234 0.43196,0.0114 0.55925,-0.0232 0.4324,-0.11767 0.78767,-0.42098 0.9952,-0.84962 0.0435,-0.0899 0.0811,-0.16609 0.0835,-0.16927 0.002,-0.003 0.18158,0.0944 0.39822,0.21679 0.21664,0.12241 0.71621,0.40429 1.11015,0.62642 0.39395,0.22211 0.79335,0.44771 0.88755,0.50131 0.0942,0.0536 0.34296,0.19422 0.55278,0.31251 0.20982,0.11829 0.50411,0.28453 0.65398,0.36944 0.37104,0.2102 1.80782,1.0207 2.17216,1.22533 0.16272,0.0914 0.67773,0.38235 1.14447,0.64658 0.46674,0.26423 0.9257,0.52371 1.0199,0.57662 0.0942,0.0529 0.50412,0.28397 0.91091,0.51347 0.40679,0.22949 1.06545,0.60107 1.46368,0.82572 0.39823,0.22465 1.06739,0.60259 1.48703,0.83989 0.41964,0.23729 0.84707,0.4789 0.94983,0.53691 0.10277,0.058 0.48816,0.27553 0.85641,0.48338 0.36826,0.20785 0.77466,0.43749 0.90312,0.51031 0.12846,0.0729 0.28612,0.16209 0.35035,0.19838 0.0642,0.0363 0.19736,0.11152 0.29585,0.16718 0.0985,0.0556 0.39979,0.2255 0.66955,0.37742 0.26977,0.15193 0.67968,0.38348 0.91091,0.51456 0.23123,0.13108 0.65129,0.36877 0.93346,0.52819 0.28217,0.15943 0.51472,0.29156 0.51679,0.29362 0.002,0.002 -0.0168,0.0456 -0.0419,0.0968 -0.0621,0.1265 -0.12987,0.34279 -0.16341,0.52129 -0.038,0.2024 -0.0382,0.57581 -3.6e-4,0.78633 0.12179,0.67744 0.53136,1.19822 1.02881,1.3082 0.128,0.0283 0.32497,0.028 0.43662,-7.2e-4 z m -9.17197,-10.5896 c -0.84656,-0.088 -1.37875,-0.23364 -2.00456,-0.5486 -0.49321,-0.2482 -0.87379,-0.52172 -1.25944,-0.90513 -0.26499,-0.26346 -0.41445,-0.44045 -0.59201,-0.70107 -0.27924,-0.40986 -0.49832,-0.89924 -0.62036,-1.38582 -0.0463,-0.18449 -0.1093,-0.56398 -0.1093,-0.65812 0,-0.0515 -0.004,-0.0547 -0.10943,-0.0962 -0.22099,-0.0867 -0.34127,-0.25028 -0.29604,-0.40262 0.0254,-0.0854 0.1328,-0.18854 0.25586,-0.24549 0.45939,-0.21261 1.16173,-0.0249 1.16173,0.31052 0,0.15808 -0.13168,0.28524 -0.37371,0.36091 -0.0835,0.0261 -0.0855,0.0281 -0.0806,0.0791 0.007,0.0668 0.0734,0.38033 0.10558,0.49446 0.19794,0.70273 0.57509,1.3456 1.09799,1.87152 0.75141,0.75577 1.75308,1.21949 2.82121,1.30605 0.69914,0.0567 1.4061,-0.0505 2.0736,-0.31425 0.15573,-0.0615 0.52496,-0.24881 0.66994,-0.33978 0.88319,-0.55422 1.5255,-1.35994 1.84913,-2.31953 0.1027,-0.30454 0.19803,-0.75954 0.16147,-0.77074 -0.01,-0.003 -0.0455,-0.0138 -0.0798,-0.0242 -0.34887,-0.10565 -0.47173,-0.3718 -0.25986,-0.56299 0.14644,-0.13213 0.3282,-0.18859 0.61021,-0.18955 0.21703,-7.4e-4 0.33418,0.0241 0.4827,0.10237 0.15984,0.0842 0.23357,0.17542 0.23357,0.28888 0,0.13837 -0.0804,0.23456 -0.27228,0.32568 l -0.1104,0.0524 -0.0199,0.19058 c -0.0809,0.77592 -0.4115,1.56322 -0.93341,2.22261 -0.15546,0.19641 -0.54741,0.58699 -0.74897,0.74635 -0.76293,0.6032 -1.65724,0.96961 -2.66424,1.09158 -0.13725,0.0166 -0.8793,0.0324 -0.98877,0.021 z m -2.19854,-6.05512 c -0.50655,-0.0919 -0.91852,-0.4141 -1.09593,-0.85713 -0.0758,-0.18928 -0.0964,-0.31424 -0.0873,-0.52892 0.0116,-0.27234 0.0752,-0.46179 0.23059,-0.68652 0.40401,-0.58444 1.24288,-0.78468 1.90547,-0.45485 0.36515,0.18177 0.60294,0.46242 0.72746,0.85857 0.0463,0.14726 0.0504,0.4918 0.008,0.64769 -0.12408,0.45286 -0.46077,0.80395 -0.92196,0.96137 -0.23392,0.0799 -0.5286,0.10285 -0.76601,0.0598 z m 4.98576,0.006 c -0.3296,-0.0284 -0.64765,-0.17249 -0.88539,-0.40126 -0.18115,-0.17431 -0.28167,-0.33515 -0.36105,-0.57771 -0.0386,-0.11804 -0.0434,-0.15595 -0.0445,-0.35036 -0.001,-0.24629 0.0206,-0.35705 0.10902,-0.55028 0.0685,-0.14973 0.16484,-0.28235 0.29653,-0.40829 0.1327,-0.12689 0.22142,-0.18786 0.38471,-0.26438 0.7796,-0.36534 1.7181,-0.0238 2.02755,0.73767 0.0953,0.23448 0.11178,0.59507 0.0379,0.82785 -0.069,0.21749 -0.17338,0.39424 -0.32108,0.54388 -0.24539,0.24863 -0.59378,0.41673 -0.90843,0.43833 -0.0645,0.005 -0.13477,0.01 -0.15618,0.0123 -0.0214,0.002 -0.10199,-9.4e-4 -0.17906,-0.008 z m 7.55511,18.26085 c -0.14048,-0.0523 -0.24629,-0.16153 -0.29271,-0.30218 -0.0259,-0.0786 -0.0102,-0.26266 0.0289,-0.33805 0.081,-0.15634 0.23835,-0.24849 0.4242,-0.24849 0.18715,0 0.33889,0.0906 0.42093,0.25114 0.0534,0.10462 0.0548,0.29107 0.003,0.3964 -0.0446,0.0906 -0.12611,0.17521 -0.21062,0.21883 -0.0831,0.0429 -0.2858,0.0551 -0.37357,0.0223 z m 0.32803,-0.0756 c 0.24975,-0.12474 0.29128,-0.4827 0.0761,-0.65591 -0.14919,-0.12009 -0.35062,-0.12029 -0.49058,-4.7e-4 -0.0999,0.0855 -0.13397,0.16226 -0.13397,0.30202 0,0.17421 0.0716,0.29279 0.21728,0.3599 0.0904,0.0416 0.24178,0.0391 0.33118,-0.006 z m -0.35454,-0.35437 v -0.28028 h 0.13285 c 0.20246,0 0.27199,0.0407 0.27199,0.15901 0,0.0637 -0.0362,0.11834 -0.0946,0.14292 l -0.0439,0.0185 0.0689,0.1084 c 0.0379,0.0596 0.0691,0.11413 0.0693,0.12111 2.4e-4,0.007 -0.0184,0.0105 -0.0413,0.008 -0.033,-0.004 -0.0564,-0.0287 -0.11123,-0.11781 -0.06,-0.0976 -0.0755,-0.11289 -0.11396,-0.11289 h -0.0445 v 0.11678 0.11678 h -0.0467 -0.0467 z m 0.29585,-0.0623 c 0.0375,-0.0375 0.0389,-0.0598 0.007,-0.10553 -0.0203,-0.029 -0.0388,-0.0346 -0.11522,-0.0346 h -0.091 l -0.007,0.074 c -0.004,0.0407 -0.004,0.0792 -6.5e-4,0.0856 0.003,0.007 0.0442,0.0116 0.0908,0.0116 0.064,0 0.0924,-0.008 0.11586,-0.0311 z"
         id="path1006" />
      <path
         d="M 87.879932,130.17079 H 77.367681 v 10.2563 h -7.64195 v -25.3391 h 18.154201 v 5.08245 H 77.367681 v 4.89962 h 10.512251 z"
         style="font-style:normal;font-variant:normal;font-weight:bold;font-stretch:normal;font-size:37.4419px;line-height:1.25;font-family:'Gill Sans';-inkscape-font-specification:'Gill Sans Bold';fill:#000000;fill-opacity:1;stroke:none;stroke-width:0.39002"
         id="path854" />
      <path
         d="m 65.135884,140.42709 h -19.10488 v -25.3391 h 18.79408 v 5.08245 h -11.15213 v 4.64367 h 10.64023 v 5.10073 h -10.64023 v 5.41152 h 11.46293 z"
         style="font-style:normal;font-variant:normal;font-weight:bold;font-stretch:normal;font-size:37.4419px;line-height:1.25;font-family:'Gill Sans';-inkscape-font-specification:'Gill Sans Bold';fill:#000000;fill-opacity:1;stroke:none;stroke-width:0.39002"
         id="path852" />
      <path
         d="m 42.372544,128.21459 q 0,3.89411 -1.42601,6.25251 -1.40773,2.3584 -3.32736,3.82097 -2.72404,2.13902 -7.62366,2.13902 h -13.67507 v -25.3391 h 10.53053 q 2.37668,0 4.05864,0.25595 1.70025,0.23767 3.05313,0.69472 1.35288,0.43878 2.30355,1.00552 0.95068,0.54847 1.70024,1.18835 1.29804,1.06036 2.26699,2.50465 0.98724,1.4443 1.55399,3.34564 0.58503,1.90135 0.58503,4.13177 z m -7.76993,-0.32907 q 0,-3.08969 -1.18834,-4.80822 -1.17006,-1.7368 -2.83373,-2.32183 -1.6454,-0.58503 -3.36393,-0.58503 h -3.25422 v 15.00966 h 3.25422 q 2.99828,0 5.19214,-1.42601 2.19386,-1.42601 2.19386,-5.86857 z"
         style="font-style:normal;font-variant:normal;font-weight:bold;font-stretch:normal;font-size:37.4419px;line-height:1.25;font-family:'Gill Sans';-inkscape-font-specification:'Gill Sans Bold';fill:#000000;fill-opacity:1;stroke:none;stroke-width:0.39002"
         id="path850" />
    </g>
    <rect
       style="fill:#000000;stroke-width:0.249061"
       id="rect931"
       width="169.505"
       height="33"
       x="12.673116"
       y="215.98956" />
    <g
       id="g939"
       style="fill:#ffffff">
      <path
         d="m 178.17812,244.90179 h -6.67957 l -12.91022,-13.86187 v 13.86187 h -7.43371 v -24.88672 h 6.6616 l 12.87432,13.79004 v -13.79004 h 7.48758 z"
         style="font-style:normal;font-variant:normal;font-weight:bold;font-stretch:normal;font-size:37.4419px;line-height:1.25;font-family:'Gill Sans';-inkscape-font-specification:'Gill Sans Bold';fill:#ffffff;fill-opacity:1;stroke:none;stroke-width:0.383057"
         id="path877" />
      <path
         d="m 114.81404,243.03438 q -1.5442,0.80802 -3.16022,1.29282 -1.61603,0.48481 -3.26796,0.68232 -1.63398,0.21547 -3.39365,0.21547 -3.25,0 -5.835643,-0.89779 -2.56768,-0.89779 -4.470996,-2.6395 -1.885361,-1.75966 -2.837019,-4.09392 -0.933703,-2.3522 -0.933703,-5.15331 0,-3.21408 1.113261,-5.62016 1.11326,-2.42403 3.106352,-4.02209 2.011057,-1.59807 4.560784,-2.35222 2.567684,-0.77209 5.404694,-0.77209 4.23758,0 9.60637,1.88536 v 6.60772 q -1.84946,-1.14917 -3.66299,-1.90331 -1.79558,-0.77209 -4.23757,-0.77209 -2.17265,0 -4.05802,0.86187 -1.88536,0.86187 -3.03453,2.45994 -1.149173,1.59807 -1.149173,3.73481 0,1.88535 1.005524,3.46546 1.005519,1.56216 2.783149,2.49585 1.79559,0.91575 4.04006,0.91575 1.81354,0 3.42957,-0.43094 1.61602,-0.44889 2.71132,-0.98757 1.11326,-0.53867 2.28039,-1.27485 z"
         style="font-style:normal;font-variant:normal;font-weight:bold;font-stretch:normal;font-size:37.4419px;line-height:1.25;font-family:'Gill Sans';-inkscape-font-specification:'Gill Sans Bold';fill:#ffffff;fill-opacity:1;stroke:none;stroke-width:0.383057"
         id="path879" />
      <path
         style="fill:#ffffff;stroke-width:0.015293"
         d="m 132.76149,247.48378 c -1.11998,-0.0742 -1.92379,-0.1927 -2.83687,-0.41846 -2.3194,-0.57348 -4.45796,-1.68789 -6.2625,-3.2634 -0.62652,-0.54699 -1.30963,-1.259 -1.82849,-1.90583 -1.86148,-2.32062 -2.99092,-5.12641 -3.2473,-8.06709 -0.0746,-0.85539 -0.0748,-1.82385 -6.8e-4,-2.66864 0.14439,-1.64518 0.55141,-3.22745 1.22311,-4.75492 0.10261,-0.23331 0.42054,-0.87861 0.54688,-1.10996 0.46612,-0.85357 1.02528,-1.67101 1.68422,-2.46217 0.35177,-0.42236 1.02431,-1.1194 1.44639,-1.49908 2.41902,-2.1761 5.4564,-3.50306 8.67881,-3.79154 0.7082,-0.0633 1.86674,-0.0713 2.51572,-0.0171 1.25654,0.10488 2.42177,0.34007 3.56243,0.71903 2.4461,0.81266 4.67007,2.26787 6.39385,4.18368 1.55488,1.72811 2.69097,3.77793 3.30125,5.9564 0.71885,2.56601 0.75791,5.21266 0.11487,7.78416 -0.89391,3.57468 -3.13758,6.75517 -6.2076,8.7995 -1.17487,0.78234 -2.29908,1.3344 -3.60152,1.76855 -1.13885,0.37962 -2.28652,0.61148 -3.56328,0.71988 -0.27218,0.0232 -1.67906,0.0429 -1.91929,0.027 z m -7.46301,-3.89767 c 0.40301,-0.10772 0.74172,-0.39395 0.9412,-0.79538 0.11654,-0.23454 0.16135,-0.4151 0.17119,-0.68987 0.0178,-0.49692 -0.13513,-0.91023 -0.45863,-1.23966 l -0.10769,-0.10967 0.23546,-0.11768 c 0.1295,-0.0646 0.49008,-0.24672 0.8013,-0.40444 0.31121,-0.15772 1.38479,-0.69798 2.38571,-1.20059 3.2791,-1.64654 4.35033,-2.18697 4.35061,-2.19486 1.6e-4,-0.005 -0.20102,-0.12106 -0.44705,-0.25952 -0.24602,-0.13846 -0.54023,-0.30443 -0.65377,-0.36879 -0.93015,-0.52726 -1.24439,-0.70206 -1.26215,-0.70206 -0.0113,0 -0.20857,0.0954 -0.43829,0.21184 -1.12788,0.57206 -5.88393,2.95382 -5.89839,2.95382 -0.009,0 -0.021,-0.019 -0.0263,-0.042 -0.005,-0.0232 -0.043,-0.11165 -0.0835,-0.19671 -0.21135,-0.44334 -0.59078,-0.75055 -1.03793,-0.84033 -0.16824,-0.0338 -0.45013,-0.0234 -0.60508,0.0222 -0.81922,0.24144 -1.29246,1.18809 -1.03892,2.07814 0.082,0.28786 0.27017,0.59743 0.47282,0.77786 0.14251,0.12687 0.33923,0.24188 0.51105,0.29876 0.13755,0.0456 0.16271,0.0489 0.39914,0.0529 l 0.25234,0.005 0.0428,0.0768 0.0428,0.0767 -0.0599,0.0883 c -0.34288,0.50531 -0.38525,1.18632 -0.10802,1.73613 0.0812,0.1612 0.16476,0.27311 0.31089,0.41671 0.19609,0.19268 0.40342,0.309 0.67237,0.37719 0.14008,0.0355 0.48592,0.03 0.63591,-0.01 z m 17.27413,-0.13826 c 0.48643,-0.125 0.85876,-0.5894 0.99308,-1.23871 0.0345,-0.16641 0.0466,-0.50109 0.0246,-0.68008 -0.0523,-0.42684 -0.20305,-0.78396 -0.44007,-1.0431 -0.0362,-0.0396 -0.0658,-0.0753 -0.0658,-0.0796 0,-0.004 0.0499,0.0161 0.11088,0.045 0.38476,0.18227 0.8284,0.16198 1.21485,-0.0556 0.14779,-0.0832 0.4,-0.32834 0.48291,-0.46935 0.16709,-0.2842 0.23987,-0.57344 0.2198,-0.87361 -0.0431,-0.64506 -0.45291,-1.15881 -1.05218,-1.31909 -0.17445,-0.0467 -0.45511,-0.0463 -0.63216,8e-4 -0.40647,0.10816 -0.72104,0.37497 -0.91249,0.77396 -0.0344,0.0716 -0.0682,0.13014 -0.0751,0.13014 -0.007,0 -0.0473,-0.0203 -0.0896,-0.0454 -0.0422,-0.0249 -0.27484,-0.15671 -0.51682,-0.29285 -0.24197,-0.13615 -0.56382,-0.31783 -0.71523,-0.40376 -0.1514,-0.0859 -0.46796,-0.26479 -0.70347,-0.39751 -0.23552,-0.13273 -0.60715,-0.34257 -0.82583,-0.46633 -0.2187,-0.12375 -0.66602,-0.37651 -0.99405,-0.56166 -0.32804,-0.18516 -1.12634,-0.63588 -1.774,-1.00159 -0.64766,-0.36572 -1.20161,-0.67734 -1.231,-0.6925 -0.0646,-0.0333 -0.0803,-0.0255 0.2446,-0.12027 l 0.23704,-0.0692 0.0994,0.0582 c 0.0547,0.032 0.13382,0.0771 0.17588,0.10022 0.042,0.0232 0.12119,0.0681 0.17587,0.0997 0.27573,0.15981 0.45832,0.26012 0.47347,0.26012 0.009,0 0.23171,-0.10921 0.4943,-0.24268 0.26258,-0.13349 1.17594,-0.59369 2.02967,-1.02269 0.85373,-0.429 2.32712,-1.1697 3.27419,-1.646 0.94706,-0.47632 1.72644,-0.86601 1.73194,-0.86601 0.006,0 0.01,0.0109 0.01,0.0241 0,0.0581 0.12943,0.3471 0.21179,0.47293 0.11369,0.17374 0.21547,0.28616 0.35717,0.39454 0.46735,0.35744 1.07974,0.3838 1.56869,0.0675 0.69154,-0.44736 0.92878,-1.44021 0.53064,-2.22072 -0.21145,-0.41451 -0.57938,-0.70649 -1.00246,-0.79548 -0.16985,-0.0357 -0.45855,-0.0274 -0.60055,0.0173 -0.0183,0.006 0.002,-0.0305 0.0577,-0.10349 0.16078,-0.21042 0.28423,-0.49455 0.33118,-0.7623 0.0289,-0.16492 0.025,-0.48331 -0.008,-0.64959 -0.12054,-0.60873 -0.52383,-1.07557 -1.07161,-1.24047 -0.1219,-0.0367 -0.163,-0.0414 -0.35939,-0.0418 -0.19845,-3.3e-4 -0.23621,0.004 -0.35939,0.0414 -0.53412,0.16223 -0.92224,0.5987 -1.05794,1.18972 -0.11557,0.50337 0.011,1.09356 0.31308,1.45977 0.0453,0.0549 0.0799,0.10196 0.0771,0.10466 -0.003,0.003 -0.76217,0.385 -1.6874,0.84958 -0.92524,0.46459 -1.69832,0.85466 -1.71798,0.86683 -0.0196,0.0122 -0.0392,0.0187 -0.0434,0.0144 -0.004,-0.005 0.0209,-0.0711 0.0558,-0.14862 0.28293,-0.62835 0.46112,-1.26039 0.54945,-1.94895 0.0387,-0.30124 0.0667,-0.83207 0.0553,-1.04757 -0.005,-0.0883 -0.0121,-0.2294 -0.0166,-0.31351 -0.0312,-0.58711 -0.17405,-1.27248 -0.39173,-1.87955 -0.48092,-1.34113 -1.37295,-2.5018 -2.56644,-3.3393 -0.40271,-0.2826 -0.96721,-0.58305 -1.43756,-0.76516 -0.55401,-0.21449 -1.10661,-0.35093 -1.72812,-0.42669 -0.28117,-0.0343 -1.21229,-0.039 -1.47577,-0.008 -0.62102,0.0742 -1.15102,0.19642 -1.66161,0.38319 -1.9923,0.72877 -3.54134,2.32996 -4.20372,4.3452 -0.41168,1.25257 -0.45416,2.62559 -0.12095,3.91004 0.0331,0.12764 0.0602,0.23666 0.0602,0.24227 0,0.0115 -0.0194,9.3e-4 -0.64996,-0.3551 -0.25233,-0.14249 -0.76159,-0.4296 -1.13168,-0.63801 -0.92094,-0.51863 -0.91311,-0.51398 -0.89746,-0.53434 0.007,-0.01 0.042,-0.0542 0.077,-0.0991 0.12329,-0.15846 0.23366,-0.38951 0.29683,-0.62135 0.0292,-0.10708 0.0334,-0.16169 0.0335,-0.42859 1e-5,-0.28759 -0.003,-0.31495 -0.0424,-0.45824 -0.18844,-0.67643 -0.70276,-1.12844 -1.34076,-1.17834 -0.60589,-0.0474 -1.1956,0.34741 -1.44618,0.96819 -0.0996,0.24663 -0.12161,0.37368 -0.11999,0.69133 9.8e-4,0.23818 0.006,0.28446 0.0418,0.42056 0.0493,0.18598 0.17656,0.45273 0.28318,0.59342 0.0434,0.0573 0.0789,0.10638 0.0789,0.10926 0,0.003 -0.0293,-0.002 -0.065,-0.01 -0.0937,-0.0217 -0.47429,-0.005 -0.58497,0.0257 -0.0505,0.014 -0.15523,0.0554 -0.23282,0.0919 -0.63548,0.29949 -1.00197,1.03884 -0.88315,1.78162 0.11237,0.70238 0.61613,1.24393 1.25267,1.34661 0.14219,0.023 0.42424,0.0112 0.54926,-0.0228 0.42468,-0.11557 0.77361,-0.41347 0.97744,-0.83446 0.0427,-0.0883 0.0797,-0.16312 0.082,-0.16624 0.002,-0.003 0.17833,0.0927 0.39111,0.21292 0.21277,0.12022 0.70342,0.39707 1.09033,0.61523 0.38692,0.21815 0.77919,0.43972 0.87171,0.49236 0.0925,0.0526 0.33683,0.19076 0.54291,0.30693 0.20607,0.11618 0.49511,0.27945 0.6423,0.36285 0.36442,0.20645 1.77555,1.00248 2.13339,1.20345 0.15981,0.0898 0.66563,0.37553 1.12404,0.63504 0.4584,0.25951 0.90917,0.51436 1.00169,0.56632 0.0925,0.052 0.49512,0.2789 0.89465,0.50431 0.39953,0.22539 1.04643,0.59034 1.43755,0.81098 0.39112,0.22064 1.04834,0.59183 1.46048,0.82489 0.41215,0.23306 0.83195,0.47035 0.93288,0.52733 0.10093,0.057 0.47944,0.27061 0.84112,0.47475 0.36169,0.20414 0.76083,0.42968 0.887,0.5012 0.12617,0.0716 0.28101,0.15919 0.34409,0.19483 0.0631,0.0357 0.19384,0.10953 0.29057,0.1642 0.0967,0.0546 0.39266,0.22147 0.6576,0.37068 0.26496,0.14922 0.66755,0.37664 0.89465,0.50538 0.2271,0.12874 0.63966,0.36218 0.9168,0.51876 0.27713,0.15658 0.50553,0.28635 0.50756,0.28837 0.002,0.002 -0.0165,0.0448 -0.0412,0.0951 -0.061,0.12424 -0.12755,0.33667 -0.16049,0.51198 -0.0373,0.19879 -0.0375,0.56553 -3.6e-4,0.77229 0.11962,0.66535 0.52188,1.17683 1.01045,1.28485 0.12571,0.0278 0.31917,0.0275 0.42882,-7.1e-4 z m -9.00823,-10.40055 c -0.83145,-0.0864 -1.35414,-0.22947 -1.96878,-0.5388 -0.4844,-0.24377 -0.85819,-0.51241 -1.23696,-0.88897 -0.26026,-0.25876 -0.40705,-0.43259 -0.58144,-0.68856 -0.27425,-0.40254 -0.48942,-0.88318 -0.60928,-1.36108 -0.0455,-0.18119 -0.10735,-0.55391 -0.10735,-0.64637 0,-0.0506 -0.004,-0.0537 -0.10748,-0.0945 -0.21704,-0.0851 -0.33518,-0.24581 -0.29075,-0.39543 0.0249,-0.0839 0.13042,-0.18518 0.25129,-0.24111 0.45119,-0.20881 1.14099,-0.0245 1.14099,0.30498 0,0.15526 -0.12933,0.28014 -0.36704,0.35446 -0.082,0.0256 -0.084,0.0276 -0.0792,0.0777 0.007,0.0656 0.0721,0.37354 0.10369,0.48563 0.19441,0.69019 0.56483,1.32158 1.07839,1.83811 0.738,0.74228 1.72179,1.19772 2.77085,1.28274 0.68666,0.0557 1.381,-0.0496 2.03659,-0.30864 0.15295,-0.0604 0.51558,-0.24437 0.65798,-0.33372 0.86742,-0.54432 1.49826,-1.33566 1.81612,-2.27812 0.10086,-0.2991 0.19449,-0.74598 0.15858,-0.75698 -0.01,-0.003 -0.0447,-0.0136 -0.0784,-0.0238 -0.34264,-0.10376 -0.46331,-0.36516 -0.25522,-0.55293 0.14382,-0.12978 0.32234,-0.18523 0.59931,-0.18617 0.21316,-7.3e-4 0.32822,0.0237 0.47409,0.10054 0.15698,0.0827 0.2294,0.17229 0.2294,0.28372 0,0.1359 -0.079,0.23038 -0.26742,0.31987 l -0.10843,0.0515 -0.0196,0.18718 c -0.0795,0.76207 -0.40415,1.53531 -0.91674,2.18293 -0.15269,0.19291 -0.53764,0.57651 -0.7356,0.73303 -0.74931,0.59243 -1.62766,0.9523 -2.61668,1.07209 -0.1348,0.0163 -0.86361,0.0318 -0.97112,0.0206 z m -2.1593,-5.94702 c -0.4975,-0.0902 -0.90212,-0.4067 -1.07636,-0.84182 -0.0745,-0.1859 -0.0947,-0.30863 -0.0857,-0.51948 0.0114,-0.26748 0.0739,-0.45355 0.22647,-0.67426 0.3968,-0.57401 1.22069,-0.77068 1.87145,-0.44673 0.35864,0.17852 0.59218,0.45416 0.71448,0.84324 0.0455,0.14463 0.0495,0.48302 0.008,0.63613 -0.12187,0.44477 -0.45255,0.78959 -0.90551,0.9442 -0.22974,0.0785 -0.51916,0.10102 -0.75233,0.0587 z m 4.89676,0.006 c -0.32372,-0.0279 -0.63609,-0.16941 -0.86958,-0.3941 -0.17792,-0.1712 -0.27665,-0.32917 -0.35461,-0.5674 -0.0379,-0.11593 -0.0426,-0.15316 -0.0437,-0.3441 -9.9e-4,-0.24189 0.0202,-0.35068 0.10707,-0.54046 0.0673,-0.14705 0.1619,-0.27731 0.29124,-0.401 0.13033,-0.12462 0.21746,-0.1845 0.37784,-0.25966 0.76568,-0.35881 1.68743,-0.0234 1.99135,0.7245 0.0936,0.2303 0.10979,0.58445 0.0372,0.81307 -0.0678,0.21361 -0.17029,0.38721 -0.31535,0.53417 -0.24101,0.2442 -0.58318,0.40929 -0.89221,0.43051 -0.0634,0.005 -0.13237,0.01 -0.1534,0.0121 -0.021,0.002 -0.10017,-9.2e-4 -0.17586,-0.008 z m 7.42024,17.93484 c -0.13797,-0.0514 -0.24189,-0.15865 -0.28748,-0.29679 -0.0254,-0.0772 -0.01,-0.25797 0.0284,-0.33201 0.0796,-0.15355 0.2341,-0.24406 0.41663,-0.24406 0.18381,0 0.33284,0.089 0.41341,0.24666 0.0524,0.10275 0.0538,0.28587 0.003,0.38932 -0.0438,0.089 -0.12386,0.17209 -0.20686,0.21493 -0.0816,0.0421 -0.2807,0.0541 -0.3669,0.0219 z m 0.32218,-0.0743 c 0.24529,-0.12251 0.28608,-0.47408 0.0747,-0.6442 -0.14653,-0.11795 -0.34436,-0.11814 -0.48182,-4.6e-4 -0.0981,0.084 -0.13158,0.15936 -0.13158,0.29662 0,0.1711 0.0703,0.28757 0.2134,0.35348 0.0888,0.0409 0.23746,0.0384 0.32527,-0.006 z m -0.34821,-0.34805 v -0.27527 h 0.13047 c 0.19885,0 0.26714,0.04 0.26714,0.15617 0,0.0626 -0.0356,0.11623 -0.0929,0.14037 l -0.0431,0.0182 0.0677,0.10646 c 0.0372,0.0585 0.0679,0.1121 0.0681,0.11895 2.4e-4,0.007 -0.0181,0.0103 -0.0406,0.008 -0.0324,-0.004 -0.0554,-0.0282 -0.10924,-0.11571 -0.0589,-0.0959 -0.0742,-0.11087 -0.11193,-0.11087 h -0.0437 v 0.11469 0.1147 h -0.0459 -0.0459 z m 0.29056,-0.0612 c 0.0368,-0.0368 0.0382,-0.0587 0.007,-0.10365 -0.0199,-0.0285 -0.0381,-0.034 -0.11316,-0.034 h -0.0894 l -0.007,0.0727 c -0.004,0.04 -0.004,0.0778 -6.4e-4,0.0841 0.003,0.007 0.0434,0.0114 0.0892,0.0114 0.0628,0 0.0907,-0.008 0.11379,-0.0305 z"
         id="path881" />
      <path
         d="M 34.503239,234.82859 H 24.178646 v 10.0732 h -7.50553 v -24.88672 h 17.830123 v 4.99171 H 24.178646 v 4.81215 h 10.324593 z"
         style="font-style:normal;font-variant:normal;font-weight:bold;font-stretch:normal;font-size:37.4419px;line-height:1.25;font-family:'Gill Sans';-inkscape-font-specification:'Gill Sans Bold';fill:#ffffff;fill-opacity:1;stroke:none;stroke-width:0.383057"
         id="path883" />
      <path
         d="M 57.255023,244.90179 H 38.491191 v -24.88672 h 18.45858 v 4.99171 H 45.996722 v 4.56077 h 10.450287 v 5.00966 H 45.996722 v 5.31491 h 11.258301 z"
         style="font-style:normal;font-variant:normal;font-weight:bold;font-stretch:normal;font-size:37.4419px;line-height:1.25;font-family:'Gill Sans';-inkscape-font-specification:'Gill Sans Bold';fill:#ffffff;fill-opacity:1;stroke:none;stroke-width:0.383057"
         id="path885" />
      <path
         d="m 86.955169,232.90732 q 0,3.82459 -1.400553,6.14088 -1.382601,2.3163 -3.267963,3.75276 -2.675412,2.10083 -7.487567,2.10083 H 61.368135 v -24.88672 h 10.342546 q 2.334253,0 3.986187,0.25138 1.669898,0.23342 2.998628,0.68231 1.328729,0.43095 2.262428,0.98757 0.933709,0.53868 1.669889,1.16714 1.274868,1.04143 2.226521,2.45993 0.969616,1.41852 1.526249,3.28591 0.574586,1.86741 0.574586,4.05801 z m -7.631226,-0.3232 q 0,-3.03453 -1.167126,-4.72238 -1.149173,-1.70579 -2.783144,-2.28038 -1.616028,-0.57458 -3.30388,-0.57458 h -3.196127 v 14.74169 h 3.196127 q 2.944757,0 5.099454,-1.40055 2.154696,-1.40055 2.154696,-5.7638 z"
         style="font-style:normal;font-variant:normal;font-weight:bold;font-stretch:normal;font-size:37.4419px;line-height:1.25;font-family:'Gill Sans';-inkscape-font-specification:'Gill Sans Bold';fill:#ffffff;fill-opacity:1;stroke:none;stroke-width:0.383057"
         id="path887" />
    </g>
  </g>
</svg>
