<?xml version="1.0" encoding="UTF-8" standalone="no"?>
<svg
   xmlns:dc="http://purl.org/dc/elements/1.1/"
   xmlns:cc="http://creativecommons.org/ns#"
   xmlns:rdf="http://www.w3.org/1999/02/22-rdf-syntax-ns#"
   xmlns:svg="http://www.w3.org/2000/svg"
   xmlns="http://www.w3.org/2000/svg"
   xmlns:sodipodi="http://sodipodi.sourceforge.net/DTD/sodipodi-0.dtd"
   xmlns:inkscape="http://www.inkscape.org/namespaces/inkscape"
   width="154.095mm"
   height="30mm"
   viewBox="0 0 154.095 30"
   version="1.1"
   id="svg8"
   inkscape:version="1.0.2 (e86c870879, 2021-01-15)"
   sodipodi:docname="fedcon.svg">
  <defs
     id="defs2">
    <rect
       x="78.527878"
       y="200.16499"
       width="106.74801"
       height="33.390728"
       id="rect911" />
  </defs>
  <sodipodi:namedview
     id="base"
     pagecolor="#ffffff"
     bordercolor="#666666"
     borderopacity="1.0"
     inkscape:pageopacity="0.0"
     inkscape:pageshadow="2"
     inkscape:zoom="1.4"
     inkscape:cx="321.13585"
     inkscape:cy="106.75142"
     inkscape:document-units="mm"
     inkscape:current-layer="g939"
     inkscape:document-rotation="0"
     showgrid="false"
     inkscape:window-width="1438"
     inkscape:window-height="970"
     inkscape:window-x="13"
     inkscape:window-y="11"
     inkscape:window-maximized="0" />
  <metadata
     id="metadata5">
    <rdf:RDF>
      <cc:Work
         rdf:about="">
        <dc:format>image/svg+xml</dc:format>
        <dc:type
           rdf:resource="http://purl.org/dc/dcmitype/StillImage" />
        <dc:title></dc:title>
      </cc:Work>
    </rdf:RDF>
  </metadata>
  <g
     inkscape:label="Layer 1"
     inkscape:groupmode="layer"
     id="layer1"
     transform="translate(0,-267)">
    <path
       style="fill:#000000;stroke-width:0.264583"
       id="path905"
       d="" />
    <path
       style="fill:#000000;stroke-width:0.264583"
       id="path903"
       d="" />
    <path
       style="fill:#000000;stroke-width:0.264583"
       id="path901"
       d="" />
    <text
       xml:space="preserve"
       id="text909"
       style="font-style:normal;font-weight:normal;font-size:10.5833px;line-height:1.25;font-family:sans-serif;white-space:pre;shape-inside:url(#rect911);fill:#000000;fill-opacity:1;stroke:none;" />
    <g
       id="g967"
       transform="matrix(0.90909091,0,0,0.90909091,-11.521015,70.645844)">
      <rect
         style="fill:#000000;stroke-width:0.249061"
         id="rect931"
         width="169.505"
         height="33"
         x="12.673116"
         y="215.98956" />
      <g
         id="g939"
         style="fill:#ffffff">
        <path
           d="m 178.17812,244.90179 h -6.67957 l -12.91022,-13.86187 v 13.86187 h -7.43371 v -24.88672 h 6.6616 l 12.87432,13.79004 v -13.79004 h 7.48758 z"
           style="font-style:normal;font-variant:normal;font-weight:bold;font-stretch:normal;font-size:37.4419px;line-height:1.25;font-family:'Gill Sans';-inkscape-font-specification:'Gill Sans Bold';fill:#ffffff;fill-opacity:1;stroke:none;stroke-width:0.383057"
           id="path877" />
        <path
           d="m 114.81404,243.03438 q -1.5442,0.80802 -3.16022,1.29282 -1.61603,0.48481 -3.26796,0.68232 -1.63398,0.21547 -3.39365,0.21547 -3.25,0 -5.835643,-0.89779 -2.56768,-0.89779 -4.470996,-2.6395 -1.885361,-1.75966 -2.837019,-4.09392 -0.933703,-2.3522 -0.933703,-5.15331 0,-3.21408 1.113261,-5.62016 1.11326,-2.42403 3.106352,-4.02209 2.011057,-1.59807 4.560784,-2.35222 2.567684,-0.77209 5.404694,-0.77209 4.23758,0 9.60637,1.88536 v 6.60772 q -1.84946,-1.14917 -3.66299,-1.90331 -1.79558,-0.77209 -4.23757,-0.77209 -2.17265,0 -4.05802,0.86187 -1.88536,0.86187 -3.03453,2.45994 -1.149173,1.59807 -1.149173,3.73481 0,1.88535 1.005524,3.46546 1.005519,1.56216 2.783149,2.49585 1.79559,0.91575 4.04006,0.91575 1.81354,0 3.42957,-0.43094 1.61602,-0.44889 2.71132,-0.98757 1.11326,-0.53867 2.28039,-1.27485 z"
           style="font-style:normal;font-variant:normal;font-weight:bold;font-stretch:normal;font-size:37.4419px;line-height:1.25;font-family:'Gill Sans';-inkscape-font-specification:'Gill Sans Bold';fill:#ffffff;fill-opacity:1;stroke:none;stroke-width:0.383057"
           id="path879" />
        <path
           style="fill:#ffffff;stroke-width:0.015293"
           d="m 132.76149,247.48378 c -1.11998,-0.0742 -1.92379,-0.1927 -2.83687,-0.41846 -2.3194,-0.57348 -4.45796,-1.68789 -6.2625,-3.2634 -0.62652,-0.54699 -1.30963,-1.259 -1.82849,-1.90583 -1.86148,-2.32062 -2.99092,-5.12641 -3.2473,-8.06709 -0.0746,-0.85539 -0.0748,-1.82385 -6.8e-4,-2.66864 0.14439,-1.64518 0.55141,-3.22745 1.22311,-4.75492 0.10261,-0.23331 0.42054,-0.87861 0.54688,-1.10996 0.46612,-0.85357 1.02528,-1.67101 1.68422,-2.46217 0.35177,-0.42236 1.02431,-1.1194 1.44639,-1.49908 2.41902,-2.1761 5.4564,-3.50306 8.67881,-3.79154 0.7082,-0.0633 1.86674,-0.0713 2.51572,-0.0171 1.25654,0.10488 2.42177,0.34007 3.56243,0.71903 2.4461,0.81266 4.67007,2.26787 6.39385,4.18368 1.55488,1.72811 2.69097,3.77793 3.30125,5.9564 0.71885,2.56601 0.75791,5.21266 0.11487,7.78416 -0.89391,3.57468 -3.13758,6.75517 -6.2076,8.7995 -1.17487,0.78234 -2.29908,1.3344 -3.60152,1.76855 -1.13885,0.37962 -2.28652,0.61148 -3.56328,0.71988 -0.27218,0.0232 -1.67906,0.0429 -1.91929,0.027 z m -7.46301,-3.89767 c 0.40301,-0.10772 0.74172,-0.39395 0.9412,-0.79538 0.11654,-0.23454 0.16135,-0.4151 0.17119,-0.68987 0.0178,-0.49692 -0.13513,-0.91023 -0.45863,-1.23966 l -0.10769,-0.10967 0.23546,-0.11768 c 0.1295,-0.0646 0.49008,-0.24672 0.8013,-0.40444 0.31121,-0.15772 1.38479,-0.69798 2.38571,-1.20059 3.2791,-1.64654 4.35033,-2.18697 4.35061,-2.19486 1.6e-4,-0.005 -0.20102,-0.12106 -0.44705,-0.25952 -0.24602,-0.13846 -0.54023,-0.30443 -0.65377,-0.36879 -0.93015,-0.52726 -1.24439,-0.70206 -1.26215,-0.70206 -0.0113,0 -0.20857,0.0954 -0.43829,0.21184 -1.12788,0.57206 -5.88393,2.95382 -5.89839,2.95382 -0.009,0 -0.021,-0.019 -0.0263,-0.042 -0.005,-0.0232 -0.043,-0.11165 -0.0835,-0.19671 -0.21135,-0.44334 -0.59078,-0.75055 -1.03793,-0.84033 -0.16824,-0.0338 -0.45013,-0.0234 -0.60508,0.0222 -0.81922,0.24144 -1.29246,1.18809 -1.03892,2.07814 0.082,0.28786 0.27017,0.59743 0.47282,0.77786 0.14251,0.12687 0.33923,0.24188 0.51105,0.29876 0.13755,0.0456 0.16271,0.0489 0.39914,0.0529 l 0.25234,0.005 0.0428,0.0768 0.0428,0.0767 -0.0599,0.0883 c -0.34288,0.50531 -0.38525,1.18632 -0.10802,1.73613 0.0812,0.1612 0.16476,0.27311 0.31089,0.41671 0.19609,0.19268 0.40342,0.309 0.67237,0.37719 0.14008,0.0355 0.48592,0.03 0.63591,-0.01 z m 17.27413,-0.13826 c 0.48643,-0.125 0.85876,-0.5894 0.99308,-1.23871 0.0345,-0.16641 0.0466,-0.50109 0.0246,-0.68008 -0.0523,-0.42684 -0.20305,-0.78396 -0.44007,-1.0431 -0.0362,-0.0396 -0.0658,-0.0753 -0.0658,-0.0796 0,-0.004 0.0499,0.0161 0.11088,0.045 0.38476,0.18227 0.8284,0.16198 1.21485,-0.0556 0.14779,-0.0832 0.4,-0.32834 0.48291,-0.46935 0.16709,-0.2842 0.23987,-0.57344 0.2198,-0.87361 -0.0431,-0.64506 -0.45291,-1.15881 -1.05218,-1.31909 -0.17445,-0.0467 -0.45511,-0.0463 -0.63216,8e-4 -0.40647,0.10816 -0.72104,0.37497 -0.91249,0.77396 -0.0344,0.0716 -0.0682,0.13014 -0.0751,0.13014 -0.007,0 -0.0473,-0.0203 -0.0896,-0.0454 -0.0422,-0.0249 -0.27484,-0.15671 -0.51682,-0.29285 -0.24197,-0.13615 -0.56382,-0.31783 -0.71523,-0.40376 -0.1514,-0.0859 -0.46796,-0.26479 -0.70347,-0.39751 -0.23552,-0.13273 -0.60715,-0.34257 -0.82583,-0.46633 -0.2187,-0.12375 -0.66602,-0.37651 -0.99405,-0.56166 -0.32804,-0.18516 -1.12634,-0.63588 -1.774,-1.00159 -0.64766,-0.36572 -1.20161,-0.67734 -1.231,-0.6925 -0.0646,-0.0333 -0.0803,-0.0255 0.2446,-0.12027 l 0.23704,-0.0692 0.0994,0.0582 c 0.0547,0.032 0.13382,0.0771 0.17588,0.10022 0.042,0.0232 0.12119,0.0681 0.17587,0.0997 0.27573,0.15981 0.45832,0.26012 0.47347,0.26012 0.009,0 0.23171,-0.10921 0.4943,-0.24268 0.26258,-0.13349 1.17594,-0.59369 2.02967,-1.02269 0.85373,-0.429 2.32712,-1.1697 3.27419,-1.646 0.94706,-0.47632 1.72644,-0.86601 1.73194,-0.86601 0.006,0 0.01,0.0109 0.01,0.0241 0,0.0581 0.12943,0.3471 0.21179,0.47293 0.11369,0.17374 0.21547,0.28616 0.35717,0.39454 0.46735,0.35744 1.07974,0.3838 1.56869,0.0675 0.69154,-0.44736 0.92878,-1.44021 0.53064,-2.22072 -0.21145,-0.41451 -0.57938,-0.70649 -1.00246,-0.79548 -0.16985,-0.0357 -0.45855,-0.0274 -0.60055,0.0173 -0.0183,0.006 0.002,-0.0305 0.0577,-0.10349 0.16078,-0.21042 0.28423,-0.49455 0.33118,-0.7623 0.0289,-0.16492 0.025,-0.48331 -0.008,-0.64959 -0.12054,-0.60873 -0.52383,-1.07557 -1.07161,-1.24047 -0.1219,-0.0367 -0.163,-0.0414 -0.35939,-0.0418 -0.19845,-3.3e-4 -0.23621,0.004 -0.35939,0.0414 -0.53412,0.16223 -0.92224,0.5987 -1.05794,1.18972 -0.11557,0.50337 0.011,1.09356 0.31308,1.45977 0.0453,0.0549 0.0799,0.10196 0.0771,0.10466 -0.003,0.003 -0.76217,0.385 -1.6874,0.84958 -0.92524,0.46459 -1.69832,0.85466 -1.71798,0.86683 -0.0196,0.0122 -0.0392,0.0187 -0.0434,0.0144 -0.004,-0.005 0.0209,-0.0711 0.0558,-0.14862 0.28293,-0.62835 0.46112,-1.26039 0.54945,-1.94895 0.0387,-0.30124 0.0667,-0.83207 0.0553,-1.04757 -0.005,-0.0883 -0.0121,-0.2294 -0.0166,-0.31351 -0.0312,-0.58711 -0.17405,-1.27248 -0.39173,-1.87955 -0.48092,-1.34113 -1.37295,-2.5018 -2.56644,-3.3393 -0.40271,-0.2826 -0.96721,-0.58305 -1.43756,-0.76516 -0.55401,-0.21449 -1.10661,-0.35093 -1.72812,-0.42669 -0.28117,-0.0343 -1.21229,-0.039 -1.47577,-0.008 -0.62102,0.0742 -1.15102,0.19642 -1.66161,0.38319 -1.9923,0.72877 -3.54134,2.32996 -4.20372,4.3452 -0.41168,1.25257 -0.45416,2.62559 -0.12095,3.91004 0.0331,0.12764 0.0602,0.23666 0.0602,0.24227 0,0.0115 -0.0194,9.3e-4 -0.64996,-0.3551 -0.25233,-0.14249 -0.76159,-0.4296 -1.13168,-0.63801 -0.92094,-0.51863 -0.91311,-0.51398 -0.89746,-0.53434 0.007,-0.01 0.042,-0.0542 0.077,-0.0991 0.12329,-0.15846 0.23366,-0.38951 0.29683,-0.62135 0.0292,-0.10708 0.0334,-0.16169 0.0335,-0.42859 1e-5,-0.28759 -0.003,-0.31495 -0.0424,-0.45824 -0.18844,-0.67643 -0.70276,-1.12844 -1.34076,-1.17834 -0.60589,-0.0474 -1.1956,0.34741 -1.44618,0.96819 -0.0996,0.24663 -0.12161,0.37368 -0.11999,0.69133 9.8e-4,0.23818 0.006,0.28446 0.0418,0.42056 0.0493,0.18598 0.17656,0.45273 0.28318,0.59342 0.0434,0.0573 0.0789,0.10638 0.0789,0.10926 0,0.003 -0.0293,-0.002 -0.065,-0.01 -0.0937,-0.0217 -0.47429,-0.005 -0.58497,0.0257 -0.0505,0.014 -0.15523,0.0554 -0.23282,0.0919 -0.63548,0.29949 -1.00197,1.03884 -0.88315,1.78162 0.11237,0.70238 0.61613,1.24393 1.25267,1.34661 0.14219,0.023 0.42424,0.0112 0.54926,-0.0228 0.42468,-0.11557 0.77361,-0.41347 0.97744,-0.83446 0.0427,-0.0883 0.0797,-0.16312 0.082,-0.16624 0.002,-0.003 0.17833,0.0927 0.39111,0.21292 0.21277,0.12022 0.70342,0.39707 1.09033,0.61523 0.38692,0.21815 0.77919,0.43972 0.87171,0.49236 0.0925,0.0526 0.33683,0.19076 0.54291,0.30693 0.20607,0.11618 0.49511,0.27945 0.6423,0.36285 0.36442,0.20645 1.77555,1.00248 2.13339,1.20345 0.15981,0.0898 0.66563,0.37553 1.12404,0.63504 0.4584,0.25951 0.90917,0.51436 1.00169,0.56632 0.0925,0.052 0.49512,0.2789 0.89465,0.50431 0.39953,0.22539 1.04643,0.59034 1.43755,0.81098 0.39112,0.22064 1.04834,0.59183 1.46048,0.82489 0.41215,0.23306 0.83195,0.47035 0.93288,0.52733 0.10093,0.057 0.47944,0.27061 0.84112,0.47475 0.36169,0.20414 0.76083,0.42968 0.887,0.5012 0.12617,0.0716 0.28101,0.15919 0.34409,0.19483 0.0631,0.0357 0.19384,0.10953 0.29057,0.1642 0.0967,0.0546 0.39266,0.22147 0.6576,0.37068 0.26496,0.14922 0.66755,0.37664 0.89465,0.50538 0.2271,0.12874 0.63966,0.36218 0.9168,0.51876 0.27713,0.15658 0.50553,0.28635 0.50756,0.28837 0.002,0.002 -0.0165,0.0448 -0.0412,0.0951 -0.061,0.12424 -0.12755,0.33667 -0.16049,0.51198 -0.0373,0.19879 -0.0375,0.56553 -3.6e-4,0.77229 0.11962,0.66535 0.52188,1.17683 1.01045,1.28485 0.12571,0.0278 0.31917,0.0275 0.42882,-7.1e-4 z m -9.00823,-10.40055 c -0.83145,-0.0864 -1.35414,-0.22947 -1.96878,-0.5388 -0.4844,-0.24377 -0.85819,-0.51241 -1.23696,-0.88897 -0.26026,-0.25876 -0.40705,-0.43259 -0.58144,-0.68856 -0.27425,-0.40254 -0.48942,-0.88318 -0.60928,-1.36108 -0.0455,-0.18119 -0.10735,-0.55391 -0.10735,-0.64637 0,-0.0506 -0.004,-0.0537 -0.10748,-0.0945 -0.21704,-0.0851 -0.33518,-0.24581 -0.29075,-0.39543 0.0249,-0.0839 0.13042,-0.18518 0.25129,-0.24111 0.45119,-0.20881 1.14099,-0.0245 1.14099,0.30498 0,0.15526 -0.12933,0.28014 -0.36704,0.35446 -0.082,0.0256 -0.084,0.0276 -0.0792,0.0777 0.007,0.0656 0.0721,0.37354 0.10369,0.48563 0.19441,0.69019 0.56483,1.32158 1.07839,1.83811 0.738,0.74228 1.72179,1.19772 2.77085,1.28274 0.68666,0.0557 1.381,-0.0496 2.03659,-0.30864 0.15295,-0.0604 0.51558,-0.24437 0.65798,-0.33372 0.86742,-0.54432 1.49826,-1.33566 1.81612,-2.27812 0.10086,-0.2991 0.19449,-0.74598 0.15858,-0.75698 -0.01,-0.003 -0.0447,-0.0136 -0.0784,-0.0238 -0.34264,-0.10376 -0.46331,-0.36516 -0.25522,-0.55293 0.14382,-0.12978 0.32234,-0.18523 0.59931,-0.18617 0.21316,-7.3e-4 0.32822,0.0237 0.47409,0.10054 0.15698,0.0827 0.2294,0.17229 0.2294,0.28372 0,0.1359 -0.079,0.23038 -0.26742,0.31987 l -0.10843,0.0515 -0.0196,0.18718 c -0.0795,0.76207 -0.40415,1.53531 -0.91674,2.18293 -0.15269,0.19291 -0.53764,0.57651 -0.7356,0.73303 -0.74931,0.59243 -1.62766,0.9523 -2.61668,1.07209 -0.1348,0.0163 -0.86361,0.0318 -0.97112,0.0206 z m -2.1593,-5.94702 c -0.4975,-0.0902 -0.90212,-0.4067 -1.07636,-0.84182 -0.0745,-0.1859 -0.0947,-0.30863 -0.0857,-0.51948 0.0114,-0.26748 0.0739,-0.45355 0.22647,-0.67426 0.3968,-0.57401 1.22069,-0.77068 1.87145,-0.44673 0.35864,0.17852 0.59218,0.45416 0.71448,0.84324 0.0455,0.14463 0.0495,0.48302 0.008,0.63613 -0.12187,0.44477 -0.45255,0.78959 -0.90551,0.9442 -0.22974,0.0785 -0.51916,0.10102 -0.75233,0.0587 z m 4.89676,0.006 c -0.32372,-0.0279 -0.63609,-0.16941 -0.86958,-0.3941 -0.17792,-0.1712 -0.27665,-0.32917 -0.35461,-0.5674 -0.0379,-0.11593 -0.0426,-0.15316 -0.0437,-0.3441 -9.9e-4,-0.24189 0.0202,-0.35068 0.10707,-0.54046 0.0673,-0.14705 0.1619,-0.27731 0.29124,-0.401 0.13033,-0.12462 0.21746,-0.1845 0.37784,-0.25966 0.76568,-0.35881 1.68743,-0.0234 1.99135,0.7245 0.0936,0.2303 0.10979,0.58445 0.0372,0.81307 -0.0678,0.21361 -0.17029,0.38721 -0.31535,0.53417 -0.24101,0.2442 -0.58318,0.40929 -0.89221,0.43051 -0.0634,0.005 -0.13237,0.01 -0.1534,0.0121 -0.021,0.002 -0.10017,-9.2e-4 -0.17586,-0.008 z"
           id="path881"
           sodipodi:nodetypes="ssssccssscccsssssscsscsssccscsssscsccscsscccccscsscccccsscssccccscssssssscccccsssssssssssccscsccsscsccccccsssccssssssccsccscccsscscsccccsscsccscssssscccsssssccscccssscscscscccscccsccsssssccsscccccsssccccccsccsssssscccc" />
        <path
           d="M 34.503239,234.82859 H 24.178646 v 10.0732 h -7.50553 v -24.88672 h 17.830123 v 4.99171 H 24.178646 v 4.81215 h 10.324593 z"
           style="font-style:normal;font-variant:normal;font-weight:bold;font-stretch:normal;font-size:37.4419px;line-height:1.25;font-family:'Gill Sans';-inkscape-font-specification:'Gill Sans Bold';fill:#ffffff;fill-opacity:1;stroke:none;stroke-width:0.383057"
           id="path883" />
        <path
           d="M 57.255023,244.90179 H 38.491191 v -24.88672 h 18.45858 v 4.99171 H 45.996722 v 4.56077 h 10.450287 v 5.00966 H 45.996722 v 5.31491 h 11.258301 z"
           style="font-style:normal;font-variant:normal;font-weight:bold;font-stretch:normal;font-size:37.4419px;line-height:1.25;font-family:'Gill Sans';-inkscape-font-specification:'Gill Sans Bold';fill:#ffffff;fill-opacity:1;stroke:none;stroke-width:0.383057"
           id="path885" />
        <path
           d="m 86.955169,232.90732 q 0,3.82459 -1.400553,6.14088 -1.382601,2.3163 -3.267963,3.75276 -2.675412,2.10083 -7.487567,2.10083 H 61.368135 v -24.88672 h 10.342546 q 2.334253,0 3.986187,0.25138 1.669898,0.23342 2.998628,0.68231 1.328729,0.43095 2.262428,0.98757 0.933709,0.53868 1.669889,1.16714 1.274868,1.04143 2.226521,2.45993 0.969616,1.41852 1.526249,3.28591 0.574586,1.86741 0.574586,4.05801 z m -7.631226,-0.3232 q 0,-3.03453 -1.167126,-4.72238 -1.149173,-1.70579 -2.783144,-2.28038 -1.616028,-0.57458 -3.30388,-0.57458 h -3.196127 v 14.74169 h 3.196127 q 2.944757,0 5.099454,-1.40055 2.154696,-1.40055 2.154696,-5.7638 z"
           style="font-style:normal;font-variant:normal;font-weight:bold;font-stretch:normal;font-size:37.4419px;line-height:1.25;font-family:'Gill Sans';-inkscape-font-specification:'Gill Sans Bold';fill:#ffffff;fill-opacity:1;stroke:none;stroke-width:0.383057"
           id="path887" />
      </g>
    </g>
  </g>
</svg>
