<?xml version="1.0" encoding="UTF-8" standalone="no"?>
<svg
   xmlns:dc="http://purl.org/dc/elements/1.1/"
   xmlns:cc="http://creativecommons.org/ns#"
   xmlns:rdf="http://www.w3.org/1999/02/22-rdf-syntax-ns#"
   xmlns:svg="http://www.w3.org/2000/svg"
   xmlns="http://www.w3.org/2000/svg"
   xmlns:sodipodi="http://sodipodi.sourceforge.net/DTD/sodipodi-0.dtd"
   xmlns:inkscape="http://www.inkscape.org/namespaces/inkscape"
   width="154.095mm"
   height="30mm"
   viewBox="0 0 154.095 30"
   version="1.1"
   id="svg8"
   inkscape:version="1.0.2 (e86c870879, 2021-01-15)"
   sodipodi:docname="fedcon_frown.svg"
   inkscape:export-filename="/home/beka/Projects/rmrf/fedcon_small.png"
   inkscape:export-xdpi="82.419998"
   inkscape:export-ydpi="82.419998">
  <defs
     id="defs2">
    <rect
       x="78.527878"
       y="200.16499"
       width="106.74801"
       height="33.390728"
       id="rect911" />
  </defs>
  <sodipodi:namedview
     id="base"
     pagecolor="#ffffff"
     bordercolor="#666666"
     borderopacity="1.0"
     inkscape:pageopacity="0.0"
     inkscape:pageshadow="2"
     inkscape:zoom="1.4"
     inkscape:cx="293.27871"
     inkscape:cy="106.75142"
     inkscape:document-units="mm"
     inkscape:current-layer="g967"
     inkscape:document-rotation="0"
     showgrid="false"
     inkscape:window-width="1438"
     inkscape:window-height="983"
     inkscape:window-x="13"
     inkscape:window-y="11"
     inkscape:window-maximized="0" />
  <metadata
     id="metadata5">
    <rdf:RDF>
      <cc:Work
         rdf:about="">
        <dc:format>image/svg+xml</dc:format>
        <dc:type
           rdf:resource="http://purl.org/dc/dcmitype/StillImage" />
        <dc:title></dc:title>
      </cc:Work>
    </rdf:RDF>
  </metadata>
  <g
     inkscape:label="Layer 1"
     inkscape:groupmode="layer"
     id="layer1"
     transform="translate(0,-267)">
    <path
       style="fill:#000000;stroke-width:0.264583"
       id="path905"
       d="" />
    <path
       style="fill:#000000;stroke-width:0.264583"
       id="path903"
       d="" />
    <path
       style="fill:#000000;stroke-width:0.264583"
       id="path901"
       d="" />
    <text
       xml:space="preserve"
       id="text909"
       style="font-style:normal;font-weight:normal;font-size:10.5833px;line-height:1.25;font-family:sans-serif;white-space:pre;shape-inside:url(#rect911);fill:#000000;fill-opacity:1;stroke:none;" />
    <g
       id="g967"
       transform="matrix(0.90909091,0,0,0.90909091,-11.521015,70.645844)">
      <rect
         style="fill:#000000;stroke-width:0.249039"
         id="rect931"
         width="169.49031"
         height="32.997139"
         x="12.673116"
         y="215.99242" />
      <g
         id="g939"
         style="fill:#ffffff">
        <path
           d="m 178.17812,244.90179 h -6.67957 l -12.91022,-13.86187 v 13.86187 h -7.43371 v -24.88672 h 6.6616 l 12.87432,13.79004 v -13.79004 h 7.48758 z"
           style="font-style:normal;font-variant:normal;font-weight:bold;font-stretch:normal;font-size:37.4419px;line-height:1.25;font-family:'Gill Sans';-inkscape-font-specification:'Gill Sans Bold';fill:#ffffff;fill-opacity:1;stroke:none;stroke-width:0.383057"
           id="path877" />
        <path
           d="m 114.81404,243.03438 q -1.5442,0.80802 -3.16022,1.29282 -1.61603,0.48481 -3.26796,0.68232 -1.63398,0.21547 -3.39365,0.21547 -3.25,0 -5.835643,-0.89779 -2.56768,-0.89779 -4.470996,-2.6395 -1.885361,-1.75966 -2.837019,-4.09392 -0.933703,-2.3522 -0.933703,-5.15331 0,-3.21408 1.113261,-5.62016 1.11326,-2.42403 3.106352,-4.02209 2.011057,-1.59807 4.560784,-2.35222 2.567684,-0.77209 5.404694,-0.77209 4.23758,0 9.60637,1.88536 v 6.60772 q -1.84946,-1.14917 -3.66299,-1.90331 -1.79558,-0.77209 -4.23757,-0.77209 -2.17265,0 -4.05802,0.86187 -1.88536,0.86187 -3.03453,2.45994 -1.149173,1.59807 -1.149173,3.73481 0,1.88535 1.005524,3.46546 1.005519,1.56216 2.783149,2.49585 1.79559,0.91575 4.04006,0.91575 1.81354,0 3.42957,-0.43094 1.61602,-0.44889 2.71132,-0.98757 1.11326,-0.53867 2.28039,-1.27485 z"
           style="font-style:normal;font-variant:normal;font-weight:bold;font-stretch:normal;font-size:37.4419px;line-height:1.25;font-family:'Gill Sans';-inkscape-font-specification:'Gill Sans Bold';fill:#ffffff;fill-opacity:1;stroke:none;stroke-width:0.383057"
           id="path879" />
        <path
           id="path975"
           style="opacity:1;fill:#ffffff;stroke-width:0.0125134"
           d="m 133.63018,227.967 c -0.68033,0.0707 -1.10802,0.18776 -1.61094,0.44087 -0.39636,0.19946 -0.70221,0.41928 -1.01214,0.7274 -0.21295,0.21173 -0.33306,0.35396 -0.47576,0.56341 -0.2244,0.32937 -0.40046,0.72265 -0.49854,1.11369 -0.0372,0.14826 -0.0878,0.45324 -0.0878,0.52889 0,0.0414 -0.003,0.0439 -0.0879,0.0773 -0.17759,0.0696 -0.27426,0.20113 -0.2379,0.32355 0.0204,0.0686 0.10671,0.15153 0.20561,0.19729 0.36919,0.17086 0.93361,0.02 0.93361,-0.24955 0,-0.12704 -0.10582,-0.22922 -0.30033,-0.29003 -0.0671,-0.0209 -0.0687,-0.0226 -0.0648,-0.0636 0.006,-0.0537 0.059,-0.30565 0.0848,-0.39736 0.15908,-0.56475 0.46217,-1.08138 0.88239,-1.50403 0.60386,-0.60736 1.40884,-0.98002 2.26723,-1.04959 0.56185,-0.0456 1.12999,0.0406 1.66643,0.25254 0.12515,0.0494 0.42187,0.19996 0.53839,0.27307 0.70976,0.44538 1.22594,1.09289 1.48603,1.86405 0.0825,0.24474 0.15914,0.6104 0.12975,0.6194 -0.008,0.002 -0.0366,0.0111 -0.0642,0.0195 -0.28036,0.0849 -0.3791,0.29879 -0.20883,0.45243 0.11768,0.1062 0.26375,0.15157 0.49038,0.15234 0.17442,5.9e-4 0.26857,-0.0194 0.38792,-0.0823 0.12845,-0.0677 0.18771,-0.14097 0.18771,-0.23215 0,-0.1112 -0.0646,-0.18851 -0.21882,-0.26173 l -0.0887,-0.0421 -0.016,-0.15316 c -0.0651,-0.62356 -0.33069,-1.25626 -0.75011,-1.78617 -0.12494,-0.15785 -0.43992,-0.47173 -0.6019,-0.5998 -0.61312,-0.48475 -1.33183,-0.77921 -2.14109,-0.87723 -0.1103,-0.0133 -0.70664,-0.026 -0.79461,-0.0169 z m -2.2251,-0.86672 c -0.4975,-0.0902 -0.90212,-0.4067 -1.07636,-0.84182 -0.0745,-0.1859 -0.0947,-0.30863 -0.0857,-0.51948 0.0114,-0.26748 0.0739,-0.45355 0.22647,-0.67426 0.3968,-0.57401 1.22069,-0.77068 1.87145,-0.44673 0.35864,0.17852 0.59218,0.45416 0.71448,0.84324 0.0455,0.14463 0.0495,0.48302 0.008,0.63613 -0.12187,0.44477 -0.45255,0.78959 -0.90551,0.9442 -0.22974,0.0785 -0.51916,0.10102 -0.75233,0.0587 z m 4.89676,0.006 c -0.32372,-0.0279 -0.63609,-0.16941 -0.86958,-0.3941 -0.17792,-0.1712 -0.27665,-0.32917 -0.35461,-0.5674 -0.0379,-0.11593 -0.0426,-0.15316 -0.0437,-0.3441 -9.9e-4,-0.24189 0.0202,-0.35068 0.10707,-0.54046 0.0673,-0.14705 0.1619,-0.27731 0.29124,-0.401 0.13033,-0.12462 0.21746,-0.1845 0.37784,-0.25966 0.76568,-0.35881 1.68743,-0.0234 1.99135,0.7245 0.0936,0.2303 0.10979,0.58445 0.0372,0.81307 -0.0678,0.21361 -0.17029,0.38721 -0.31535,0.53417 -0.24101,0.2442 -0.58318,0.40929 -0.89221,0.43051 -0.0634,0.005 -0.13237,0.01 -0.1534,0.0121 -0.021,0.002 -0.10017,-9.2e-4 -0.17586,-0.008 z m -2.85666,-9.61603 c -0.45929,0.003 -0.92603,0.0206 -1.28013,0.0523 -3.22241,0.28848 -6.25993,1.6154 -8.67896,3.7915 -0.42208,0.37968 -1.09434,1.07662 -1.44611,1.49898 -0.65894,0.79116 -1.21817,1.60891 -1.68429,2.46248 -0.12634,0.23135 -0.44423,0.87686 -0.54684,1.11017 -0.6717,1.52747 -1.07889,3.10926 -1.22328,4.75444 -0.0741,0.84479 -0.074,1.81344 5.7e-4,2.66883 0.25638,2.94068 1.38602,5.74669 3.2475,8.06731 0.51886,0.64683 1.20215,1.35842 1.82867,1.90541 1.80454,1.57551 3.94311,2.68994 6.26251,3.26342 0.91308,0.22576 1.71654,0.34474 2.83652,0.41894 0.24023,0.0159 1.64745,-0.004 1.91963,-0.0273 1.27676,-0.1084 2.42413,-0.34003 3.56298,-0.71965 1.30245,-0.43415 2.42677,-0.98665 3.60164,-1.76899 3.07003,-2.04433 5.31347,-5.22478 6.20738,-8.79946 0.64304,-2.5715 0.60402,-5.21822 -0.11483,-7.78423 -0.61028,-2.17847 -1.74605,-4.22801 -3.30093,-5.95612 -1.72378,-1.91581 -3.94772,-3.37107 -6.39382,-4.18373 -1.14066,-0.37896 -2.30588,-0.61419 -3.56242,-0.71907 -0.32449,-0.0271 -0.77651,-0.0384 -1.23579,-0.0352 z m 0.407,3.62893 c 0.30086,0.002 0.60407,0.0118 0.74466,0.029 0.62151,0.0758 1.17404,0.21184 1.72806,0.42633 0.47035,0.18211 1.03487,0.48252 1.43759,0.76512 1.19348,0.8375 2.08559,1.99846 2.56651,3.33959 0.21767,0.60707 0.36045,1.29216 0.39165,1.87927 0.005,0.0841 0.0115,0.22548 0.0165,0.31378 0.0114,0.2155 -0.0164,0.74639 -0.0551,1.04763 -0.0883,0.68856 -0.26675,1.32027 -0.54968,1.94862 -0.0349,0.0775 -0.0597,0.14393 -0.0557,0.14893 0.004,0.004 0.0236,-0.003 0.0432,-0.0148 0.0197,-0.0122 0.79259,-0.40228 1.71783,-0.86687 0.92523,-0.46458 1.6847,-0.84625 1.6877,-0.84925 0.003,-0.003 -0.032,-0.0497 -0.0773,-0.1046 -0.30208,-0.36621 -0.42821,-0.95638 -0.31264,-1.45975 0.1357,-0.59102 0.52375,-1.02752 1.05786,-1.18975 0.12319,-0.0374 0.16081,-0.0418 0.35926,-0.0415 0.19639,4e-4 0.23735,0.005 0.35925,0.0415 0.54778,0.1649 0.95097,0.63218 1.07151,1.24091 0.033,0.16628 0.0369,0.48424 0.008,0.64916 -0.047,0.26775 -0.17005,0.55242 -0.33083,0.76284 -0.0557,0.073 -0.0763,0.10946 -0.058,0.10346 0.142,-0.0447 0.43099,-0.0533 0.60084,-0.0176 0.42308,0.089 0.79071,0.38131 1.00216,0.79582 0.39814,0.78051 0.16119,1.77296 -0.53035,2.22033 -0.48896,0.3163 -1.10155,0.28979 -1.5689,-0.0676 -0.1417,-0.10838 -0.24329,-0.22076 -0.35698,-0.3945 -0.0824,-0.12583 -0.21203,-0.41484 -0.21203,-0.47294 0,-0.0132 -0.004,-0.0239 -0.01,-0.0239 -0.006,0 -0.78498,0.38998 -1.73204,0.8663 -0.94707,0.4763 -2.42049,1.21664 -3.27422,1.64564 -0.85373,0.429 -1.76732,0.88913 -2.0299,1.02262 -0.26259,0.13347 -0.48498,0.24272 -0.49398,0.24272 -0.0151,0 -0.19778,-0.1 -0.47351,-0.25977 -0.0547,-0.0316 -0.13421,-0.0769 -0.17621,-0.10005 -0.0421,-0.0231 -0.12095,-0.068 -0.17565,-0.10004 l -0.0995,-0.058 -0.23704,0.0688 c -0.3249,0.0948 -0.30903,0.0872 -0.24443,0.12051 0.0294,0.0152 0.58302,0.32664 1.23068,0.69236 0.64765,0.36571 1.44606,0.81643 1.7741,1.00159 0.32803,0.18515 0.7755,0.43787 0.9942,0.56162 0.21869,0.12376 0.59042,0.33396 0.82595,0.46669 0.23551,0.13272 0.55176,0.31144 0.70316,0.39734 0.15141,0.0859 0.47369,0.26744 0.71567,0.40359 0.24197,0.13614 0.47451,0.26785 0.51671,0.29275 0.0423,0.0251 0.0822,0.0455 0.0892,0.0455 0.007,0 0.0406,-0.0586 0.075,-0.13017 0.19145,-0.39899 0.50644,-0.66549 0.91291,-0.77365 0.17705,-0.0471 0.45766,-0.0478 0.63211,-0.001 0.59927,0.16028 1.00908,0.67429 1.05218,1.31935 0.0201,0.30017 -0.0529,0.58949 -0.21998,0.87369 -0.0829,0.14101 -0.33482,0.38576 -0.48261,0.46896 -0.38645,0.21758 -0.83057,0.23798 -1.21533,0.0557 -0.061,-0.0289 -0.11084,-0.0489 -0.11084,-0.0449 0,0.004 0.0297,0.04 0.0659,0.0796 0.23702,0.25914 0.38767,0.61624 0.43997,1.04308 0.022,0.17899 0.0101,0.51345 -0.0244,0.67986 -0.13432,0.64931 -0.50664,1.1142 -0.99307,1.2392 v -0.001 c -0.10965,0.0282 -0.30289,0.0284 -0.4286,5.7e-4 -0.48857,-0.10802 -0.89107,-0.61932 -1.01069,-1.28467 -0.0371,-0.20676 -0.0367,-0.57372 5.7e-4,-0.77251 0.0329,-0.17531 0.0993,-0.38736 0.1603,-0.5116 0.0247,-0.0503 0.0429,-0.0935 0.0409,-0.0955 -0.002,-0.002 -0.22992,-0.13162 -0.50705,-0.2882 -0.27714,-0.15658 -0.6898,-0.39025 -0.9169,-0.51899 -0.2271,-0.12874 -0.62976,-0.35612 -0.89473,-0.50534 -0.26493,-0.14921 -0.56098,-0.31602 -0.65768,-0.37062 -0.0967,-0.0547 -0.22737,-0.12858 -0.29047,-0.16428 -0.0631,-0.0356 -0.21774,-0.12281 -0.34391,-0.19441 -0.12617,-0.0715 -0.52565,-0.29722 -0.88734,-0.50136 -0.36168,-0.20414 -0.74036,-0.41765 -0.84129,-0.47465 -0.10093,-0.057 -0.52066,-0.29445 -0.93281,-0.52751 -0.41214,-0.23306 -1.06921,-0.60417 -1.46032,-0.82481 -0.39112,-0.22064 -1.03806,-0.58578 -1.43759,-0.81117 -0.39953,-0.22541 -0.80223,-0.4522 -0.89473,-0.5042 -0.0925,-0.052 -0.54319,-0.30666 -1.00159,-0.56617 -0.45841,-0.25951 -0.964,-0.54515 -1.12381,-0.63495 -0.35784,-0.20097 -1.76893,-0.99694 -2.13335,-1.20339 -0.1472,-0.0834 -0.43627,-0.24705 -0.64234,-0.36323 -0.20608,-0.11617 -0.45037,-0.25436 -0.54286,-0.30696 -0.0925,-0.0526 -0.48507,-0.27412 -0.87199,-0.49227 -0.38691,-0.21816 -0.8775,-0.49483 -1.09027,-0.61505 -0.21278,-0.12022 -0.38909,-0.21617 -0.39109,-0.21317 -0.002,0.003 -0.0392,0.0783 -0.0819,0.16656 -0.20382,0.42099 -0.55303,0.7189 -0.97771,0.83447 -0.12502,0.034 -0.40693,0.0457 -0.54912,0.0227 -0.63654,-0.10268 -1.14047,-0.64425 -1.25284,-1.34663 -0.11882,-0.74278 0.24788,-1.48201 0.88336,-1.7815 0.0776,-0.0365 0.18199,-0.0781 0.23249,-0.0921 0.11068,-0.0307 0.49179,-0.0473 0.58549,-0.0256 0.0357,0.008 0.0648,0.0127 0.0648,0.01 0,-0.003 -0.0356,-0.0518 -0.079,-0.10914 -0.10662,-0.14069 -0.23378,-0.40747 -0.28308,-0.59345 -0.0358,-0.1361 -0.0411,-0.18247 -0.0421,-0.42065 -0.002,-0.31765 0.0203,-0.44459 0.11995,-0.69122 0.25057,-0.62078 0.84079,-1.01546 1.44668,-0.96806 0.638,0.0499 1.15194,0.50195 1.34038,1.17838 0.0394,0.14329 0.0426,0.17057 0.0426,0.45816 -10e-5,0.2669 -0.004,0.32153 -0.0335,0.42861 -0.0632,0.23184 -0.17344,0.46284 -0.29673,0.6213 -0.035,0.0449 -0.0703,0.0889 -0.0773,0.0989 -0.0157,0.0204 -0.0234,0.0157 0.89757,0.53434 0.37009,0.20841 0.87943,0.49587 1.13176,0.63836 0.63056,0.35603 0.64973,0.3662 0.64973,0.3547 0,-0.006 -0.0271,-0.11451 -0.0602,-0.24215 -0.33321,-1.28445 -0.2906,-2.65717 0.12108,-3.90974 0.66238,-2.01524 2.21131,-3.61639 4.20361,-4.34516 0.5106,-0.18677 1.04054,-0.30893 1.66156,-0.38313 0.13174,-0.0155 0.43072,-0.0226 0.73158,-0.021 z m -2.59777,14.38439 c 0.0178,0 0.33235,0.17477 1.2625,0.70203 0.11354,0.0644 0.40769,0.23046 0.65371,0.36892 0.24603,0.13846 0.44695,0.2542 0.44679,0.2592 -2.7e-4,0.008 -1.07117,0.54878 -4.35027,2.19532 -1.00092,0.50261 -2.07454,1.04283 -2.38575,1.20055 -0.31122,0.15772 -0.672,0.33956 -0.8015,0.40416 l -0.23533,0.11767 0.10743,0.10971 c 0.3235,0.32943 0.47653,0.74285 0.45873,1.23977 -0.01,0.27477 -0.0546,0.45554 -0.1711,0.69008 -0.19948,0.40143 -0.53833,0.68753 -0.94133,0.79525 v 5.7e-4 c -0.15,0.04 -0.49544,0.0457 -0.63552,0.0102 -0.26895,-0.0682 -0.47638,-0.18476 -0.67247,-0.37744 -0.14613,-0.1436 -0.22974,-0.25547 -0.31093,-0.41667 -0.27724,-0.54981 -0.23488,-1.23071 0.108,-1.73602 l 0.0597,-0.0881 -0.0426,-0.0767 -0.0426,-0.0767 -0.25239,-0.005 c -0.23643,-0.004 -0.26149,-0.007 -0.39904,-0.0529 -0.17182,-0.0569 -0.36852,-0.17213 -0.51103,-0.299 -0.20265,-0.18043 -0.39094,-0.48976 -0.47294,-0.77762 -0.25355,-0.89005 0.21932,-1.83678 1.03854,-2.07822 0.15495,-0.0456 0.43714,-0.056 0.60539,-0.0222 0.44714,0.0898 0.82662,0.39681 1.03797,0.84015 0.0405,0.0851 0.0786,0.17348 0.0836,0.19668 0.005,0.023 0.0172,0.0421 0.0262,0.0421 0.0145,0 4.77026,-2.38156 5.89814,-2.95362 0.22972,-0.11644 0.42697,-0.21203 0.43827,-0.21203 z" />
        <path
           d="M 34.503239,234.82859 H 24.178646 v 10.0732 h -7.50553 v -24.88672 h 17.830123 v 4.99171 H 24.178646 v 4.81215 h 10.324593 z"
           style="font-style:normal;font-variant:normal;font-weight:bold;font-stretch:normal;font-size:37.4419px;line-height:1.25;font-family:'Gill Sans';-inkscape-font-specification:'Gill Sans Bold';fill:#ffffff;fill-opacity:1;stroke:none;stroke-width:0.383057"
           id="path883" />
        <path
           d="M 57.255023,244.90179 H 38.491191 v -24.88672 h 18.45858 v 4.99171 H 45.996722 v 4.56077 h 10.450287 v 5.00966 H 45.996722 v 5.31491 h 11.258301 z"
           style="font-style:normal;font-variant:normal;font-weight:bold;font-stretch:normal;font-size:37.4419px;line-height:1.25;font-family:'Gill Sans';-inkscape-font-specification:'Gill Sans Bold';fill:#ffffff;fill-opacity:1;stroke:none;stroke-width:0.383057"
           id="path885" />
        <path
           d="m 86.955169,232.90732 q 0,3.82459 -1.400553,6.14088 -1.382601,2.3163 -3.267963,3.75276 -2.675412,2.10083 -7.487567,2.10083 H 61.368135 v -24.88672 h 10.342546 q 2.334253,0 3.986187,0.25138 1.669898,0.23342 2.998628,0.68231 1.328729,0.43095 2.262428,0.98757 0.933709,0.53868 1.669889,1.16714 1.274868,1.04143 2.226521,2.45993 0.969616,1.41852 1.526249,3.28591 0.574586,1.86741 0.574586,4.05801 z m -7.631226,-0.3232 q 0,-3.03453 -1.167126,-4.72238 -1.149173,-1.70579 -2.783144,-2.28038 -1.616028,-0.57458 -3.30388,-0.57458 h -3.196127 v 14.74169 h 3.196127 q 2.944757,0 5.099454,-1.40055 2.154696,-1.40055 2.154696,-5.7638 z"
           style="font-style:normal;font-variant:normal;font-weight:bold;font-stretch:normal;font-size:37.4419px;line-height:1.25;font-family:'Gill Sans';-inkscape-font-specification:'Gill Sans Bold';fill:#ffffff;fill-opacity:1;stroke:none;stroke-width:0.383057"
           id="path887" />
      </g>
    </g>
  </g>
</svg>
