<?xml version="1.0" encoding="UTF-8" standalone="no"?>
<svg
   xmlns:dc="http://purl.org/dc/elements/1.1/"
   xmlns:cc="http://creativecommons.org/ns#"
   xmlns:rdf="http://www.w3.org/1999/02/22-rdf-syntax-ns#"
   xmlns:svg="http://www.w3.org/2000/svg"
   xmlns="http://www.w3.org/2000/svg"
   xmlns:sodipodi="http://sodipodi.sourceforge.net/DTD/sodipodi-0.dtd"
   xmlns:inkscape="http://www.inkscape.org/namespaces/inkscape"
   width="210mm"
   height="297mm"
   viewBox="0 0 210 297"
   version="1.1"
   id="svg8"
   inkscape:version="1.0.2 (e86c870879, 2021-01-15)"
   sodipodi:docname="ftpcon_logo_ideas.svg">
  <defs
     id="defs2" />
  <sodipodi:namedview
     id="base"
     pagecolor="#ffffff"
     bordercolor="#666666"
     borderopacity="1.0"
     inkscape:pageopacity="0.0"
     inkscape:pageshadow="2"
     inkscape:zoom="0.49497475"
     inkscape:cx="514.34432"
     inkscape:cy="135.21909"
     inkscape:document-units="mm"
     inkscape:current-layer="layer1"
     inkscape:document-rotation="0"
     showgrid="true"
     inkscape:window-width="1438"
     inkscape:window-height="970"
     inkscape:window-x="13"
     inkscape:window-y="11"
     inkscape:window-maximized="0">
    <inkscape:grid
       type="xygrid"
       id="grid845"
       units="mm"
       spacingx="1"
       spacingy="1" />
  </sodipodi:namedview>
  <metadata
     id="metadata5">
    <rdf:RDF>
      <cc:Work
         rdf:about="">
        <dc:format>image/svg+xml</dc:format>
        <dc:type
           rdf:resource="http://purl.org/dc/dcmitype/StillImage" />
        <dc:title></dc:title>
      </cc:Work>
    </rdf:RDF>
  </metadata>
  <g
     inkscape:label="Layer 1"
     inkscape:groupmode="layer"
     id="layer1">
    <text
       xml:space="preserve"
       style="font-weight:bold;font-size:10.5833px;line-height:1.25;font-family:'Judera Flat';-inkscape-font-specification:'Judera Flat Bold';stroke-width:0.264583"
       x="34.336777"
       y="155.35046"
       id="text835"><tspan
         sodipodi:role="line"
         id="tspan833"
         x="34.336777"
         y="155.35046"
         style="stroke-width:0.264583">ftp://con</tspan></text>
    <text
       xml:space="preserve"
       style="font-weight:bold;font-size:10.5833px;line-height:1.25;font-family:'Judera Flat';-inkscape-font-specification:'Judera Flat Bold';stroke-width:0.264583"
       x="35.687748"
       y="168.47481"
       id="text839"><tspan
         sodipodi:role="line"
         id="tspan837"
         x="35.687748"
         y="168.47481"
         style="font-style:normal;font-variant:normal;font-weight:bold;font-stretch:normal;font-family:'Small Pixel7';-inkscape-font-specification:'Small Pixel7 Bold';stroke-width:0.264583">ftp://con</tspan></text>
    <text
       xml:space="preserve"
       style="font-weight:bold;font-size:10.5833px;line-height:1.25;font-family:'Judera Flat';-inkscape-font-specification:'Judera Flat Bold';stroke-width:0.264583"
       x="33.178486"
       y="186.42499"
       id="text843"><tspan
         sodipodi:role="line"
         id="tspan841"
         x="33.178486"
         y="186.42499"
         style="font-style:normal;font-variant:normal;font-weight:bold;font-stretch:normal;font-family:'Origami Mommy';-inkscape-font-specification:'Origami Mommy Bold';stroke-width:0.264583">ftp://con</tspan></text>
    <g
       id="g884"
       transform="translate(-4.9999797,15.000131)">
      <path
         style="fill:#000000;fill-opacity:1;stroke:none;stroke-width:0.264583px;stroke-linecap:butt;stroke-linejoin:miter;stroke-opacity:1"
         d="M 34.999998,191.99999 H 50 v 5 h -5.000001 v 5 h -5 v 5 h -5.000001 z"
         id="path847" />
      <path
         style="fill:#000000;fill-opacity:1;stroke:none;stroke-width:0.264583px;stroke-linecap:butt;stroke-linejoin:miter;stroke-opacity:1"
         d="m 55,191.99999 h 14.999999 v 5 h -5 v 10 h -5.000001 v -10 H 55 Z"
         id="path849" />
      <path
         id="path851"
         style="fill:#000000;fill-opacity:1;stroke:none;stroke-width:0.999999px;stroke-linecap:butt;stroke-linejoin:miter;stroke-opacity:1"
         d="m 283.46484,725.66992 v 75.58985 h 18.89649 v -18.89844 h 37.79687 v -56.69141 z m 18.89649,18.89649 h 18.89844 v 18.89843 h -18.89844 z"
         transform="scale(0.26458333)" />
      <path
         style="fill:#000000;fill-opacity:1;stroke:none;stroke-width:0.264583px;stroke-linecap:butt;stroke-linejoin:miter;stroke-opacity:1"
         d="M 94.999999,191.99999 H 100 v 5 h -5.000001 z"
         id="path855" />
      <path
         style="fill:#000000;fill-opacity:1;stroke:none;stroke-width:0.264583px;stroke-linecap:butt;stroke-linejoin:miter;stroke-opacity:1"
         d="M 94.999999,201.99999 H 100 v 5 h -5.000001 z"
         id="path857" />
      <path
         style="fill:#000000;fill-opacity:1;stroke:none;stroke-width:0.264583px;stroke-linecap:butt;stroke-linejoin:miter;stroke-opacity:1"
         d="m 105,206.99999 v -5 h 5 v -5 h 5 v -5 h 5 v 5 h -5 v 5 h -5 v 5 z"
         id="path859" />
      <path
         style="fill:#000000;fill-opacity:1;stroke:none;stroke-width:0.264583px;stroke-linecap:butt;stroke-linejoin:miter;stroke-opacity:1"
         d="m 125,206.99999 h -5 v -5 h 5 v -5 h 5 v -5 h 5 v 5 h -5 v 5 h -5 z"
         id="path861" />
      <path
         style="fill:#000000;fill-opacity:1;stroke:none;stroke-width:0.264583px;stroke-linecap:butt;stroke-linejoin:miter;stroke-opacity:1"
         d="m 140,191.99999 h 15 v 5 h -10 v 5 h 10 v 5 h -15 z"
         id="path863" />
      <path
         id="path865"
         style="fill:#000000;fill-opacity:1;stroke:none;stroke-width:0.999999px;stroke-linecap:butt;stroke-linejoin:miter;stroke-opacity:1"
         d="m 604.72461,725.66992 v 56.69141 h 56.69336 v -56.69141 z m 18.89648,18.89649 h 18.89844 v 18.89843 h -18.89844 z"
         transform="scale(0.26458333)" />
      <path
         style="fill:#000000;fill-opacity:1;stroke:none;stroke-width:0.264583px;stroke-linecap:butt;stroke-linejoin:miter;stroke-opacity:1"
         d="m 180,206.99999 v -15 h 15 v 15 h -5 v -10 h -5 v 10 z"
         id="path869" />
    </g>
    <g
       id="g1004"
       transform="translate(-4.9999797,39.999922)">
      <path
         style="fill:#000000;fill-opacity:1;stroke:none;stroke-width:0.264583px;stroke-linecap:butt;stroke-linejoin:miter;stroke-opacity:1"
         d="M 34.999998,191.99999 H 50 v 5 h -5.000001 v 5 h -5 v 5 h -5.000001 z"
         id="path984" />
      <path
         style="fill:#000000;fill-opacity:1;stroke:none;stroke-width:0.264583px;stroke-linecap:butt;stroke-linejoin:miter;stroke-opacity:1"
         d="m 55,191.99999 h 14.999999 v 5 h -5 v 10 h -5.000001 v -10 H 55 Z"
         id="path986" />
      <path
         id="path988"
         style="fill:#000000;fill-opacity:1;stroke:none;stroke-width:0.999999px;stroke-linecap:butt;stroke-linejoin:miter;stroke-opacity:1"
         d="m 283.46484,725.66992 8e-4,56.69336 h 18.89649 V 763.46484 H 340.159 l -8e-4,-37.79492 z"
         transform="scale(0.26458333)"
         sodipodi:nodetypes="ccccccc" />
      <path
         style="fill:#000000;fill-opacity:1;stroke:none;stroke-width:0.264583px;stroke-linecap:butt;stroke-linejoin:miter;stroke-opacity:1"
         d="M 94.999999,191.99999 H 100 v 5 h -5.000001 z"
         id="path990" />
      <path
         style="fill:#000000;fill-opacity:1;stroke:none;stroke-width:0.264583px;stroke-linecap:butt;stroke-linejoin:miter;stroke-opacity:1"
         d="M 94.999999,201.99999 H 100 v 5 h -5.000001 z"
         id="path992" />
      <path
         style="fill:#000000;fill-opacity:1;stroke:none;stroke-width:0.264583px;stroke-linecap:butt;stroke-linejoin:miter;stroke-opacity:1"
         d="m 105,206.99999 v -5 h 5 v -5 h 5 v -5 h 5 v 5 h -5 v 5 h -5 v 5 z"
         id="path994" />
      <path
         style="fill:#000000;fill-opacity:1;stroke:none;stroke-width:0.264583px;stroke-linecap:butt;stroke-linejoin:miter;stroke-opacity:1"
         d="m 125,206.99999 h -5 v -5 h 5 v -5 h 5 v -5 h 5 v 5 h -5 v 5 h -5 z"
         id="path996" />
      <path
         style="fill:#000000;fill-opacity:1;stroke:none;stroke-width:0.264583px;stroke-linecap:butt;stroke-linejoin:miter;stroke-opacity:1"
         d="m 140,191.99999 h 15 v 5 h -10 v 5 h 10 v 5 h -15 z"
         id="path998" />
      <path
         id="path1000"
         style="fill:#000000;fill-opacity:1;stroke:none;stroke-width:0.999999px;stroke-linecap:butt;stroke-linejoin:miter;stroke-opacity:1"
         d="m 604.72461,725.66992 v 56.69141 h 56.69336 v -56.69141 z m 18.89648,18.89649 h 18.89844 v 18.89843 h -18.89844 z"
         transform="scale(0.26458333)" />
      <path
         style="fill:#000000;fill-opacity:1;stroke:none;stroke-width:0.264583px;stroke-linecap:butt;stroke-linejoin:miter;stroke-opacity:1"
         d="m 180,206.99999 v -15 h 15 v 15 h -5 v -10 h -5 v 10 z"
         id="path1002" />
    </g>
    <g
       id="g1026"
       transform="translate(-4.9999792,65.291589)">
      <path
         style="fill:#000000;fill-opacity:1;stroke:none;stroke-width:0.264583px;stroke-linecap:butt;stroke-linejoin:miter;stroke-opacity:1"
         d="M 34.999998,191.99999 H 50 v 5 h -5.000001 v 5 h -5 v 5 h -5.000001 z"
         id="path1006" />
      <path
         style="fill:#000000;fill-opacity:1;stroke:none;stroke-width:0.264583px;stroke-linecap:butt;stroke-linejoin:miter;stroke-opacity:1"
         d="m 55,191.99999 h 14.999999 v 5 h -5 v 10 h -5.000001 v -10 H 55 Z"
         id="path1008" />
      <path
         id="path1010"
         style="fill:#000000;fill-opacity:1;stroke:none;stroke-width:0.999999px;stroke-linecap:butt;stroke-linejoin:miter;stroke-opacity:1"
         d="m 283.46484,725.66992 8e-4,56.69336 h 18.89649 V 763.46484 H 340.159 l -8e-4,-37.79492 z"
         transform="scale(0.26458333)"
         sodipodi:nodetypes="ccccccc" />
      <path
         style="fill:#000000;fill-opacity:1;stroke:none;stroke-width:0.264583px;stroke-linecap:butt;stroke-linejoin:miter;stroke-opacity:1"
         d="M 94.999999,191.99999 H 100 v 5 h -5.000001 z"
         id="path1012" />
      <path
         style="fill:#000000;fill-opacity:1;stroke:none;stroke-width:0.264583px;stroke-linecap:butt;stroke-linejoin:miter;stroke-opacity:1"
         d="M 94.999999,201.99999 H 100 v 5 h -5.000001 z"
         id="path1014" />
      <path
         style="fill:#000000;fill-opacity:1;stroke:none;stroke-width:0.264583px;stroke-linecap:butt;stroke-linejoin:miter;stroke-opacity:1"
         d="m 105,206.99999 v -5 h 5 v -5 h 5 v -5 h 5 v 5 h -5 v 5 h -5 v 5 z"
         id="path1016" />
      <path
         style="fill:#000000;fill-opacity:1;stroke:none;stroke-width:0.264583px;stroke-linecap:butt;stroke-linejoin:miter;stroke-opacity:1"
         d="m 125,206.99999 h -5 v -5 h 5 v -5 h 5 v -5 h 5 v 5 h -5 v 5 h -5 z"
         id="path1018" />
      <path
         style="fill:#000000;fill-opacity:1;stroke:none;stroke-width:0.264583px;stroke-linecap:butt;stroke-linejoin:miter;stroke-opacity:1"
         d="m 140,191.99999 h 15 v 5 h -10 v 5 h 10 v 5 h -15 z"
         id="path1020" />
      <path
         id="path1022"
         style="fill:#000000;fill-opacity:1;stroke:none;stroke-width:0.999999px;stroke-linecap:butt;stroke-linejoin:miter;stroke-opacity:1"
         d="m 604.72461,725.66992 v 56.69141 h 56.69336 v -56.69141 z"
         transform="scale(0.26458333)"
         sodipodi:nodetypes="ccccc" />
      <path
         style="fill:#000000;fill-opacity:1;stroke:none;stroke-width:0.264583px;stroke-linecap:butt;stroke-linejoin:miter;stroke-opacity:1"
         d="m 180,206.99999 v -15 h 15 v 15 h -5 v -10 h -5 v 10 z"
         id="path1024" />
    </g>
  </g>
</svg>
