<?xml version="1.0" encoding="UTF-8" standalone="no"?>
<svg
   xmlns:dc="http://purl.org/dc/elements/1.1/"
   xmlns:cc="http://creativecommons.org/ns#"
   xmlns:rdf="http://www.w3.org/1999/02/22-rdf-syntax-ns#"
   xmlns:svg="http://www.w3.org/2000/svg"
   xmlns="http://www.w3.org/2000/svg"
   xmlns:sodipodi="http://sodipodi.sourceforge.net/DTD/sodipodi-0.dtd"
   xmlns:inkscape="http://www.inkscape.org/namespaces/inkscape"
   width="154.095mm"
   height="30mm"
   viewBox="0 0 154.095 30"
   version="1.1"
   id="svg8"
   inkscape:version="1.0.2 (e86c870879, 2021-01-15)"
   sodipodi:docname="ftpcon_logo.svg"
   inkscape:export-filename="/home/beka/Projects/rmrf/fedcon_small.png"
   inkscape:export-xdpi="82.419998"
   inkscape:export-ydpi="82.419998">
  <defs
     id="defs2">
    <rect
       x="78.527878"
       y="200.16499"
       width="106.74801"
       height="33.390728"
       id="rect911" />
  </defs>
  <sodipodi:namedview
     id="base"
     pagecolor="#ffffff"
     bordercolor="#666666"
     borderopacity="1.0"
     inkscape:pageopacity="0.0"
     inkscape:pageshadow="2"
     inkscape:zoom="0.98994949"
     inkscape:cx="336.05559"
     inkscape:cy="50.671945"
     inkscape:document-units="mm"
     inkscape:current-layer="g967"
     inkscape:document-rotation="0"
     showgrid="true"
     inkscape:window-width="1438"
     inkscape:window-height="983"
     inkscape:window-x="13"
     inkscape:window-y="11"
     inkscape:window-maximized="0">
    <inkscape:grid
       type="xygrid"
       id="grid2229"
       units="mm"
       spacingx="0.99999999"
       spacingy="0.99999999" />
  </sodipodi:namedview>
  <metadata
     id="metadata5">
    <rdf:RDF>
      <cc:Work
         rdf:about="">
        <dc:format>image/svg+xml</dc:format>
        <dc:type
           rdf:resource="http://purl.org/dc/dcmitype/StillImage" />
        <dc:title></dc:title>
      </cc:Work>
    </rdf:RDF>
  </metadata>
  <g
     inkscape:label="Layer 1"
     inkscape:groupmode="layer"
     id="layer1"
     transform="translate(0,-267)">
    <path
       style="fill:#000000;stroke-width:0.264583"
       id="path905"
       d="" />
    <path
       style="fill:#000000;stroke-width:0.264583"
       id="path903"
       d="" />
    <path
       style="fill:#000000;stroke-width:0.264583"
       id="path901"
       d="" />
    <text
       xml:space="preserve"
       id="text909"
       style="font-style:normal;font-weight:normal;font-size:10.5833px;line-height:1.25;font-family:sans-serif;white-space:pre;shape-inside:url(#rect911);fill:#000000;fill-opacity:1;stroke:none;" />
    <g
       id="g967"
       transform="matrix(0.90909091,0,0,0.90909091,-11.521015,70.645844)">
      <rect
         style="fill:#000000;stroke-width:0.249039"
         id="rect931"
         width="169.49031"
         height="32.997139"
         x="12.673116"
         y="215.99242" />
      <path
         style="opacity:1;fill:#ffffff;stroke-width:0.0125134"
         d="m 133.44518,217.49025 c -0.45929,0.003 -0.92603,0.0206 -1.28013,0.0523 -3.22241,0.28848 -6.25993,1.6154 -8.67896,3.7915 -0.42208,0.37968 -1.09434,1.07662 -1.44611,1.49898 -0.65894,0.79116 -1.21817,1.60891 -1.68429,2.46248 -0.12634,0.23135 -0.44423,0.87686 -0.54684,1.11017 -0.6717,1.52747 -1.07889,3.10926 -1.22328,4.75444 -0.0741,0.84479 -0.074,1.81344 5.7e-4,2.66883 0.25638,2.94068 1.38602,5.74669 3.2475,8.06731 0.51886,0.64683 1.20215,1.35842 1.82867,1.90541 1.80454,1.57551 3.94311,2.68994 6.26251,3.26342 0.91308,0.22576 1.71654,0.34474 2.83652,0.41894 0.24023,0.0159 1.64745,-0.004 1.91963,-0.0273 1.27676,-0.1084 2.42413,-0.34003 3.56298,-0.71965 1.30245,-0.43415 2.42677,-0.98665 3.60164,-1.76899 3.07003,-2.04433 5.31347,-5.22478 6.20738,-8.79946 0.64304,-2.5715 0.60402,-5.21822 -0.11483,-7.78423 -0.61028,-2.17847 -1.74605,-4.22801 -3.30093,-5.95612 -1.72378,-1.91581 -3.94772,-3.37107 -6.39382,-4.18373 -1.14066,-0.37896 -2.30588,-0.61419 -3.56242,-0.71907 -0.32449,-0.0271 -0.77651,-0.0384 -1.23579,-0.0352 z"
         id="path2223" />
      <path
         d="m 178.17812,244.90179 h -6.67957 l -12.91022,-13.86187 v 13.86187 h -7.43371 v -24.88672 h 6.6616 l 12.87432,13.79004 v -13.79004 h 7.48758 z"
         style="font-style:normal;font-variant:normal;font-weight:bold;font-stretch:normal;font-size:37.4419px;line-height:1.25;font-family:'Gill Sans';-inkscape-font-specification:'Gill Sans Bold';fill:#ffffff;fill-opacity:1;stroke:none;stroke-width:0.383057"
         id="path877" />
      <path
         d="m 114.81404,243.03438 q -1.5442,0.80802 -3.16022,1.29282 -1.61603,0.48481 -3.26796,0.68232 -1.63398,0.21547 -3.39365,0.21547 -3.25,0 -5.835643,-0.89779 -2.56768,-0.89779 -4.470996,-2.6395 -1.885361,-1.75966 -2.837019,-4.09392 -0.933703,-2.3522 -0.933703,-5.15331 0,-3.21408 1.113261,-5.62016 1.11326,-2.42403 3.106352,-4.02209 2.011057,-1.59807 4.560784,-2.35222 2.567684,-0.77209 5.404694,-0.77209 4.23758,0 9.60637,1.88536 v 6.60772 q -1.84946,-1.14917 -3.66299,-1.90331 -1.79558,-0.77209 -4.23757,-0.77209 -2.17265,0 -4.05802,0.86187 -1.88536,0.86187 -3.03453,2.45994 -1.149173,1.59807 -1.149173,3.73481 0,1.88535 1.005524,3.46546 1.005519,1.56216 2.783149,2.49585 1.79559,0.91575 4.04006,0.91575 1.81354,0 3.42957,-0.43094 1.61602,-0.44889 2.71132,-0.98757 1.11326,-0.53867 2.28039,-1.27485 z"
         style="font-style:normal;font-variant:normal;font-weight:bold;font-stretch:normal;font-size:37.4419px;line-height:1.25;font-family:'Gill Sans';-inkscape-font-specification:'Gill Sans Bold';fill:#ffffff;fill-opacity:1;stroke:none;stroke-width:0.383057"
         id="path879" />
      <path
         d="M 34.50309,234.82847 H 24.178646 v 10.07306 H 16.67322 v -24.8864 h 17.82987 v 4.99165 H 24.178646 v 4.81207 H 34.50309 Z"
         style="font-weight:bold;font-size:11.6417px;line-height:1.25;font-family:'Gill Sans';-inkscape-font-specification:'Gill Sans Bold';fill:#ffffff;stroke-width:0.919323"
         id="path2201" />
      <path
         d="m 63.411539,226.06615 h -9.121423 v 18.83538 h -7.487469 v -18.83538 h -9.121423 v -6.05102 h 25.730315 z"
         style="font-weight:bold;font-size:11.6417px;line-height:1.25;font-family:'Gill Sans';-inkscape-font-specification:'Gill Sans Bold';fill:#ffffff;stroke-width:0.919323"
         id="path2203" />
      <path
         d="m 89.339369,227.84373 q 0,1.3826 -0.484798,2.71129 -0.466845,1.31078 -1.526223,2.45993 -1.059378,1.1312 -2.87289,1.8494 -1.795555,0.70029 -4.237512,0.70029 h -4.919823 v 9.33689 H 67.7927 v -24.8864 h 12.425246 q 2.441957,0 4.237512,0.7182 1.813512,0.71823 2.87289,1.86738 1.059378,1.14918 1.526223,2.49584 0.484798,1.34666 0.484798,2.74718 z m -7.649066,0.036 q 0,-1.77758 -1.059378,-2.42398 -1.041424,-0.66438 -3.752713,-0.66438 h -1.580089 v 5.99717 h 1.616 q 1.867378,0 2.87289,-0.23343 1.005512,-0.23343 1.4544,-0.86186 0.44889,-0.62843 0.44889,-1.81352 z"
         style="font-weight:bold;font-size:11.6417px;line-height:1.25;font-family:'Gill Sans';-inkscape-font-specification:'Gill Sans Bold';fill:#ffffff;stroke-width:0.919323"
         id="path2205" />
      <g
         id="g2284"
         transform="rotate(45,133.67312,233.03957)">
        <g
           id="g2269">
          <path
             style="fill:#000000;fill-opacity:1;stroke:none;stroke-width:0.291042px;stroke-linecap:butt;stroke-linejoin:miter;stroke-opacity:1"
             d="m 129.78403,239.60048 1.55563,-1.55563 2.33345,2.33345 2.33346,-2.33345 1.55564,1.55563 -3.88909,3.88909 z"
             id="path2231" />
          <rect
             style="fill:#000000;fill-opacity:1;stroke:none;stroke-width:0.379472"
             id="rect2233"
             width="2.2"
             height="18.700006"
             x="132.57312"
             y="222.58957" />
        </g>
        <g
           id="g2273">
          <path
             style="fill:#000000;fill-opacity:1;stroke:none;stroke-width:0.291042px;stroke-linecap:butt;stroke-linejoin:miter;stroke-opacity:1"
             d="m 122.08403,239.60048 1.55563,-1.55563 2.33345,2.33345 2.33346,-2.33345 1.55564,1.55563 -3.88909,3.88909 z"
             id="path2245" />
          <rect
             style="fill:#000000;fill-opacity:1;stroke:none;stroke-width:0.379472"
             id="rect2247"
             width="2.2"
             height="18.699999"
             x="124.87312"
             y="222.58957" />
        </g>
        <g
           id="g2265">
          <path
             style="fill:#000000;fill-opacity:1;stroke:none;stroke-width:0.291042px;stroke-linecap:butt;stroke-linejoin:miter;stroke-opacity:1"
             d="m 137.48403,239.60048 1.55563,-1.55563 2.33345,2.33345 2.33346,-2.33345 1.55564,1.55563 -3.88909,3.88909 z"
             id="path2251" />
          <rect
             style="fill:#000000;fill-opacity:1;stroke:none;stroke-width:0.379472"
             id="rect2253"
             width="2.2"
             height="18.699999"
             x="140.27312"
             y="222.58957" />
        </g>
      </g>
    </g>
  </g>
</svg>
