<?xml version="1.0" encoding="UTF-8" standalone="no"?>
<svg
   xmlns:dc="http://purl.org/dc/elements/1.1/"
   xmlns:cc="http://creativecommons.org/ns#"
   xmlns:rdf="http://www.w3.org/1999/02/22-rdf-syntax-ns#"
   xmlns:svg="http://www.w3.org/2000/svg"
   xmlns="http://www.w3.org/2000/svg"
   xmlns:sodipodi="http://sodipodi.sourceforge.net/DTD/sodipodi-0.dtd"
   xmlns:inkscape="http://www.inkscape.org/namespaces/inkscape"
   width="200mm"
   height="200mm"
   viewBox="0 0 200 200"
   version="1.1"
   id="svg8"
   inkscape:version="1.0.2 (e86c870879, 2021-01-15)"
   sodipodi:docname="logo.svg"
   inkscape:export-filename="/home/beka/Projects/rmrf/logo.png"
   inkscape:export-xdpi="96"
   inkscape:export-ydpi="96">
  <defs
     id="defs2" />
  <sodipodi:namedview
     id="base"
     pagecolor="#ffffff"
     bordercolor="#666666"
     borderopacity="1.0"
     inkscape:pageopacity="0.0"
     inkscape:pageshadow="2"
     inkscape:zoom="0.7"
     inkscape:cx="248.93923"
     inkscape:cy="375.98949"
     inkscape:document-units="mm"
     inkscape:current-layer="layer1"
     inkscape:document-rotation="0"
     showgrid="true"
     inkscape:window-width="1438"
     inkscape:window-height="970"
     inkscape:window-x="13"
     inkscape:window-y="11"
     inkscape:window-maximized="0">
    <inkscape:grid
       type="xygrid"
       id="grid10"
       units="mm"
       spacingx="1"
       spacingy="1"
       empspacing="10" />
  </sodipodi:namedview>
  <metadata
     id="metadata5">
    <rdf:RDF>
      <cc:Work
         rdf:about="">
        <dc:format>image/svg+xml</dc:format>
        <dc:type
           rdf:resource="http://purl.org/dc/dcmitype/StillImage" />
        <dc:title></dc:title>
      </cc:Work>
    </rdf:RDF>
  </metadata>
  <g
     inkscape:label="Layer 1"
     inkscape:groupmode="layer"
     id="layer1">
    <rect
       style="fill:#000000;fill-opacity:1;stroke:none;stroke-width:0.264583;stroke-opacity:1"
       id="rect987"
       width="200"
       height="200"
       x="0"
       y="0" />
    <path
       style="fill:#000000;stroke:#000000;stroke-width:0.264583px;stroke-linecap:butt;stroke-linejoin:miter;stroke-opacity:1"
       d="m 19.99971,69.99971 h 10 v -20 h 9.999999 v -10 H 49.99971 v -10 h 19.999999 v -10 h 60.000001 v 10 h 20 v 10 h 10 v 10 h 10 v 20 h 10 v 60 h -10 v 20 h -10 v 10 h -10 v 10 h -20 v 10 H 69.999709 v -10 H 49.99971 v -10 H 39.999709 v -10 H 29.99971 v -20 h -10 z"
       id="path934" />
    <path
       id="path12"
       style="fill:#ff0000;fill-opacity:1;stroke:none;stroke-width:0.264583px;stroke-linecap:butt;stroke-linejoin:miter;stroke-opacity:1"
       d="m 69.999618,10.00004 v 9.99991 h 59.999952 v -9.99991 z m 59.999952,9.99991 v 9.9999 h 20.00033 v -9.9999 z m 20.00033,9.9999 v 9.99991 h 9.99991 v -9.99991 z m 9.99991,9.99991 v 9.99991 h 9.9999 v -9.99991 z m 9.9999,9.99991 V 70 h 9.99991 V 49.99967 Z M 179.99962,70 v 59.99995 h 9.99991 V 70 Z m 0,59.99995 h -9.99991 v 19.99981 h 9.99991 z m -9.99991,19.99981 h -9.9999 v 9.99991 h 9.9999 z m -9.9999,9.99991 h -9.99991 v 10.00042 h 9.99991 z m -9.99991,10.00042 H 129.99957 V 180 H 149.9999 Z M 129.99957,180 H 69.999618 v 9.99992 h 59.999952 z m -59.999952,0 v -9.99991 H 49.999804 V 180 Z m -19.999814,-9.99991 v -10.00042 h -9.999906 v 10.00042 z m -9.999906,-10.00042 v -9.99991 h -9.999906 v 9.99991 z m -9.999906,-9.99991 V 129.99995 H 19.999569 v 19.99981 z M 19.999569,129.99995 V 70 H 9.9996628 v 59.99995 z m 0,-59.99995 H 29.999992 V 49.99967 H 19.999569 Z M 29.999992,49.99967 h 9.999906 v -9.99991 h -9.999906 z m 9.999906,-9.99991 h 9.999906 v -9.99991 h -9.999906 z m 9.999906,-9.99991 h 19.999814 v -9.9999 H 49.999804 Z m 50.000046,0 v 9.99991 h 9.99991 v -9.99991 z m 0,9.99991 h -9.999904 v 9.99991 h 9.999904 z m -9.999904,9.99991 H 79.999524 V 60.00009 H 89.999946 Z M 79.999524,60.00009 H 69.999618 V 70 h 9.999906 z M 69.999618,70 H 59.99971 v 9.9999 h 9.999908 z m -9.999908,9.9999 h -9.999906 v 9.99991 h 9.999906 z m -9.999906,9.99991 H 39.999898 V 79.9999 h -9.999906 v 29.99972 H 59.99971 v -9.99991 h -9.999906 z m 9.999906,19.99981 v 30.00024 h 30.000236 v -9.99991 H 79.999524 v -9.99991 h -9.999906 v -10.00042 z m 19.999814,10.00042 H 89.999946 V 109.99962 H 79.999524 Z m 10.000422,-10.00042 h 9.999904 v -9.99991 h -9.999904 z m 9.999904,-9.99991 h 9.99991 v -9.9999 h -9.99991 z m 9.99991,-9.9999 h 9.99991 V 79.9999 h -9.99991 z m 9.99991,-9.99991 h 9.9999 V 70 h -9.9999 z M 129.99957,70 H 140 v -9.99991 h -10.00043 z m -39.999624,69.99986 v 30.00023 h 29.999724 v -10.00042 h -9.99991 v -9.99991 h -9.99991 v -9.9999 z m 19.999814,9.9999 h 9.99991 v -9.9999 h -9.99991 z m 9.99991,-9.9999 h 9.9999 v -9.99991 h -9.9999 z m 9.9999,-9.99991 H 140 v -9.99991 H 129.99957 Z M 140,120.00004 h 9.9999 V 109.99962 H 140 Z m 9.9999,-10.00042 h 9.99991 v -9.99991 h -9.99991 z m 9.99991,-9.99991 h 9.9999 v -9.9999 h -9.9999 z" />
  </g>
</svg>
